<svg height="32" node-id="1" sillyvg="true" template-height="32" template-width="32" version="1.1" viewBox="0 0 1040 720" width="32" xmlns="http://www.w3.org/2000/svg" xmlns:xlink="http://www.w3.org/1999/xlink"><defs node-id="209"><linearGradient gradientUnits="userSpaceOnUse" id="SVGID_3_" node-id="10" spreadMethod="pad" x1="59.203" x2="979.0053" y1="360.3061" y2="360.3061"><stop offset="0" stop-color="#251464"/><stop offset="1" stop-color="#171043"/></linearGradient><radialGradient cx="918.0405" cy="6.2453" fx="918.0405" fy="6.2453" gradientUnits="userSpaceOnUse" id="SVGID_4_" node-id="14" r="290.654" rev="28" spreadMethod="pad"><stop offset="0" stop-color="#532174"/><stop offset="1" stop-color="#532174" stop-opacity="0"/></radialGradient><radialGradient cx="-1790.4995" cy="1708.1484" fx="-1790.4995" fy="1708.1484" gradientTransform="matrix(1.6835 -0.7921 0.4258 0.9048 3166.6284 -2244.0107)" gradientUnits="userSpaceOnUse" id="SVGID_5_" node-id="18" r="225.7373" rev="27" spreadMethod="pad"><stop offset="0" stop-color="#1d1b76"/><stop offset="1" stop-color="#1d1b76" stop-opacity="0"/></radialGradient><radialGradient cx="-1863.4678" cy="436.0876" fx="-1863.4678" fy="436.0876" gradientTransform="matrix(1.6835 -0.7921 0.5053 1.0739 3459.0728 -1622.4895)" gradientUnits="userSpaceOnUse" id="SVGID_6_" node-id="22" r="121.4041" rev="26" spreadMethod="pad"><stop offset="0" stop-color="#191b7e" stop-opacity="0.6"/><stop offset="1" stop-color="#191b7e" stop-opacity="0"/></radialGradient><radialGradient cx="-2053.5085" cy="611.3719" fx="-2053.5085" fy="611.3719" gradientTransform="matrix(1.6835 -0.7921 0.5053 1.0739 3459.0728 -1622.4895)" gradientUnits="userSpaceOnUse" id="SVGID_7_" node-id="26" r="121.4041" rev="25" spreadMethod="pad"><stop offset="0" stop-color="#191b7e" stop-opacity="0.6"/><stop offset="1" stop-color="#191b7e" stop-opacity="0"/></radialGradient><radialGradient cx="832.0695" cy="569.2728" fx="832.0695" fy="569.2728" gradientUnits="userSpaceOnUse" id="SVGID_8_" node-id="31" r="19.1" rev="24" spreadMethod="pad"><stop offset="0.1955" stop-color="#ffffff"/><stop offset="0.8827" stop-color="#ffffff" stop-opacity="0"/></radialGradient><radialGradient cx="526.1795" cy="156.3795" fx="526.1795" fy="156.3795" gradientUnits="userSpaceOnUse" id="SVGID_9_" node-id="35" r="19.1" rev="23" spreadMethod="pad"><stop offset="0.1955" stop-color="#ffffff"/><stop offset="0.8827" stop-color="#ffffff" stop-opacity="0"/></radialGradient><radialGradient cx="912.9036" cy="353.5215" fx="912.9036" fy="353.5215" gradientUnits="userSpaceOnUse" id="SVGID_10_" node-id="39" r="9.6446" rev="22" spreadMethod="pad"><stop offset="0.1955" stop-color="#ffffff"/><stop offset="0.8827" stop-color="#ffffff" stop-opacity="0"/></radialGradient><radialGradient cx="151.474" cy="569.2728" fx="151.474" fy="569.2728" gradientUnits="userSpaceOnUse" id="SVGID_11_" node-id="43" r="9.6446" rev="21" spreadMethod="pad"><stop offset="0.1955" stop-color="#ffffff"/><stop offset="0.8827" stop-color="#ffffff" stop-opacity="0"/></radialGradient><radialGradient cx="509.7025" cy="116.0594" fx="509.7025" fy="116.0594" gradientUnits="userSpaceOnUse" id="SVGID_12_" node-id="47" r="9.6446" rev="20" spreadMethod="pad"><stop offset="0.1955" stop-color="#ffffff"/><stop offset="0.8827" stop-color="#ffffff" stop-opacity="0"/></radialGradient><radialGradient cx="685.3276" cy="166.2657" fx="685.3276" fy="166.2657" gradientUnits="userSpaceOnUse" id="SVGID_13_" node-id="51" r="9.6446" rev="19" spreadMethod="pad"><stop offset="0.1955" stop-color="#ffffff"/><stop offset="0.8827" stop-color="#ffffff" stop-opacity="0"/></radialGradient><radialGradient cx="445.7332" cy="604.3591" fx="445.7332" fy="604.3591" gradientUnits="userSpaceOnUse" id="SVGID_14_" node-id="55" r="9.6446" rev="18" spreadMethod="pad"><stop offset="0.1955" stop-color="#ffffff"/><stop offset="0.8827" stop-color="#ffffff" stop-opacity="0"/></radialGradient><linearGradient gradientTransform="matrix(0.7071 0.7071 -0.7071 0.7071 -2506.5273 3066.292)" gradientUnits="userSpaceOnUse" id="SVGID_15_" node-id="61" spreadMethod="pad" x1="552.9512" x2="554.9935" y1="-4230.4956" y2="-4364.2544"><stop offset="0" stop-color="#30e3e7"/><stop offset="0.4721" stop-color="#32e4e5" stop-opacity="0.3"/><stop offset="1" stop-color="#35e5e3" stop-opacity="0"/></linearGradient><linearGradient gradientTransform="matrix(0.7071 0.7071 -0.7071 0.7071 -2506.5273 3066.292)" gradientUnits="userSpaceOnUse" id="SVGID_16_" node-id="66" spreadMethod="pad" x1="553.1768" x2="554.1924" y1="-4233.7207" y2="-4300.2437"><stop offset="0" stop-color="#30e3e7"/><stop offset="0.4721" stop-color="#32e4e5" stop-opacity="0.3"/><stop offset="1" stop-color="#35e5e3" stop-opacity="0"/></linearGradient><linearGradient gradientTransform="matrix(0.7071 0.7071 -0.4371 0.4371 -1490.7374 2050.502)" gradientUnits="userSpaceOnUse" id="SVGID_17_" node-id="71" spreadMethod="pad" x1="553.197" x2="553.9766" y1="-4523.9663" y2="-4575.0205"><stop offset="0" stop-color="#30e3e7"/><stop offset="0.4721" stop-color="#32e4e5" stop-opacity="0.3"/><stop offset="1" stop-color="#35e5e3" stop-opacity="0"/></linearGradient><linearGradient gradientTransform="matrix(0.7071 0.7071 -0.7071 0.7071 -2506.5273 3066.292)" gradientUnits="userSpaceOnUse" id="SVGID_18_" node-id="77" spreadMethod="pad" x1="176.1451" x2="178.1873" y1="-3778.575" y2="-3912.3337"><stop offset="0" stop-color="#30e3e7"/><stop offset="0.4721" stop-color="#32e4e5" stop-opacity="0.3"/><stop offset="1" stop-color="#35e5e3" stop-opacity="0"/></linearGradient><linearGradient gradientTransform="matrix(0.7071 0.7071 -0.7071 0.7071 -2506.5273 3066.292)" gradientUnits="userSpaceOnUse" id="SVGID_19_" node-id="82" spreadMethod="pad" x1="176.3706" x2="177.3863" y1="-3781.8" y2="-3848.3232"><stop offset="0" stop-color="#30e3e7"/><stop offset="0.4721" stop-color="#32e4e5" stop-opacity="0.3"/><stop offset="1" stop-color="#35e5e3" stop-opacity="0"/></linearGradient><linearGradient gradientTransform="matrix(0.7071 0.7071 -0.4371 0.4371 -1490.7374 2050.502)" gradientUnits="userSpaceOnUse" id="SVGID_20_" node-id="87" spreadMethod="pad" x1="176.3909" x2="177.1705" y1="-3792.926" y2="-3843.9802"><stop offset="0" stop-color="#30e3e7"/><stop offset="0.4721" stop-color="#32e4e5" stop-opacity="0.3"/><stop offset="1" stop-color="#35e5e3" stop-opacity="0"/></linearGradient><linearGradient gradientTransform="matrix(0.7071 0.7071 -0.7071 0.7071 -2506.5273 3066.292)" gradientUnits="userSpaceOnUse" id="SVGID_21_" node-id="92" spreadMethod="pad" x1="71.1492" x2="73.1915" y1="-4308.2144" y2="-4441.973"><stop offset="0" stop-color="#30e3e7"/><stop offset="0.4721" stop-color="#32e4e5" stop-opacity="0.3"/><stop offset="1" stop-color="#35e5e3" stop-opacity="0"/></linearGradient><linearGradient gradientTransform="matrix(0.7071 0.7071 -0.7071 0.7071 -2506.5273 3066.292)" gradientUnits="userSpaceOnUse" id="SVGID_22_" node-id="97" spreadMethod="pad" x1="398.3359" x2="400.3782" y1="-4024.8904" y2="-4158.649"><stop offset="0" stop-color="#30e3e7"/><stop offset="0.4721" stop-color="#32e4e5" stop-opacity="0.3"/><stop offset="1" stop-color="#35e5e3" stop-opacity="0"/></linearGradient><radialGradient cx="-137.3566" cy="1334.569" fx="-137.3566" fy="1334.569" gradientTransform="matrix(0.9924 -0.1234 0.1234 0.9924 141.9945 -757.4224)" gradientUnits="userSpaceOnUse" id="SVGID_23_" node-id="137" r="225.7373" rev="9" spreadMethod="pad"><stop offset="0" stop-color="#fff17e"/><stop offset="0.9451" stop-color="#fff17e" stop-opacity="0"/></radialGradient><linearGradient gradientUnits="userSpaceOnUse" id="SVGID_24_" node-id="141" spreadMethod="pad" x1="59.4432" x2="286.9871" y1="502.4075" y2="669.5603"><stop offset="0.2031" stop-color="#fdf580"/><stop offset="1" stop-color="#f0731f"/></linearGradient><linearGradient gradientUnits="userSpaceOnUse" id="SVGID_25_" node-id="145" spreadMethod="pad" x1="-50.571" x2="384.3844" y1="591.4059" y2="591.4059"><stop offset="0" stop-color="#f17723"/><stop offset="0.9451" stop-color="#f7c658"/></linearGradient><radialGradient cx="519.1041" cy="47.5346" fx="519.1041" fy="47.5346" gradientUnits="userSpaceOnUse" id="SVGID_26_" node-id="150" r="104.9257" rev="6" spreadMethod="pad"><stop offset="0" stop-color="#00e8db"/><stop offset="0.9451" stop-color="#00e8db" stop-opacity="0"/></radialGradient><linearGradient gradientUnits="userSpaceOnUse" id="SVGID_27_" node-id="154" spreadMethod="pad" x1="482.8161" x2="557.1077" y1="-5.3149" y2="102.8826"><stop offset="0.3284" stop-color="#00e8db"/><stop offset="1" stop-color="#05b0d1"/></linearGradient><linearGradient gradientUnits="userSpaceOnUse" id="SVGID_28_" node-id="158" spreadMethod="pad" x1="759.6735" x2="919.0155" y1="747.6395" y2="641.6913"><stop offset="0" stop-color="#552262"/><stop offset="0.517" stop-color="#312d8a"/><stop offset="1" stop-color="#4a6b9e"/></linearGradient><radialGradient cx="444.5048" cy="558.7861" fx="444.5048" fy="558.7861" gradientTransform="matrix(0.997 -0.0776 0.0776 0.997 189.5406 -281.8543)" gradientUnits="userSpaceOnUse" id="SVGID_31_" node-id="173" r="52.7854" rev="3" spreadMethod="pad"><stop offset="0" stop-color="#d96070"/><stop offset="0.9451" stop-color="#d96070" stop-opacity="0"/></radialGradient><radialGradient cx="514.9775" cy="690.0588" fx="514.9775" fy="690.0588" gradientTransform="matrix(0.997 -0.0776 0.0776 0.997 189.5406 -281.8543)" gradientUnits="userSpaceOnUse" id="SVGID_32_" node-id="177" r="52.7854" rev="2" spreadMethod="pad"><stop offset="0" stop-color="#2489c0"/><stop offset="0.9451" stop-color="#2489c0" stop-opacity="0"/></radialGradient><linearGradient gradientTransform="matrix(0.997 -0.0776 0.0776 0.997 189.5406 -281.8543)" gradientUnits="userSpaceOnUse" id="SVGID_33_" node-id="181" spreadMethod="pad" x1="259.8347" x2="259.7347" y1="680.7119" y2="661.8495"><stop offset="0" stop-color="#6583d2"/><stop offset="1" stop-color="#c9dcff"/></linearGradient><clipPath id="SVGID_2_" node-id="8"><path d="M 59.20 468.28 C 59.20 650.50 253.53 696.53 629.50 696.44 C 885.09 696.53 979.10 577.71 979.00 373.68 C 978.89 140.68 748.81 24.27 629.50 24.18 C 553.94 24.11 375.35 32.65 272.34 150.27 C 187.51 247.13 59.20 291.05 59.20 468.28 Z" fill="#000000" fill-rule="nonzero" node-id="404" stroke="none" target-height="672.418" target-width="919.899" target-x="59.203" target-y="24.115"/></clipPath><clipPath id="SVGID_30_" node-id="171"><path d="M 712.05 388.21 L 738.52 372.15 C 738.52 372.15 740.95 362.40 731.73 345.38 C 722.50 328.36 682.78 252.45 682.78 252.45 C 682.78 252.45 673.36 243.62 659.73 251.88 C 646.09 260.15 630.68 268.69 630.68 268.69 L 708.61 388.48 L 712.05 388.21 Z" fill="#000000" fill-rule="nonzero" node-id="408" stroke="none" target-height="144.86598" target-width="110.267944" target-x="630.681" target-y="243.615"/></clipPath></defs><path d="M 2.89 490.28 C 2.89 672.50 254.79 716.01 630.76 715.92 C 886.35 716.01 1037.16 584.97 1037.06 380.95 C 1036.95 147.95 870.55 35.13 719.35 12.06 C 646.85 1.00 252.79 -22.01 269.82 133.41 C 281.84 243.13 2.89 226.36 2.89 490.28 Z" fill="#f0f0ff" fill-rule="nonzero" node-id="414" stroke="none" target-height="738.02496" target-width="1034.2681" target-x="2.891" target-y="-22.011"/><path d="M 39.72 468.28 C 39.72 650.50 265.26 704.00 641.23 703.90 C 896.81 704.00 1004.50 577.71 1004.40 373.68 C 1004.29 140.68 774.21 24.27 654.89 24.18 C 579.33 24.12 280.71 -5.14 297.73 150.27 C 309.75 259.99 39.72 204.36 39.72 468.28 Z" fill="#d7d7ff" fill-rule="nonzero" node-id="416" stroke="none" target-height="709.142" target-width="964.77496" target-x="39.721" target-y="-5.145"/><g node-id="682"><g node-id="684"><g clip-path="url(#SVGID_2_)" group-id="1,3" node-id="420"><path d="M 59.20 468.28 C 59.20 650.50 253.53 696.53 629.50 696.44 C 885.09 696.53 979.10 577.71 979.00 373.68 C 978.89 140.68 748.81 24.27 629.50 24.18 C 553.94 24.11 375.35 32.65 272.34 150.27 C 187.51 247.13 59.20 291.05 59.20 468.28 Z" fill="url(#SVGID_3_)" fill-rule="nonzero" group-id="1,3" node-id="422" stroke="none" target-height="672.418" target-width="919.899" target-x="59.203" target-y="24.115"/></g></g><g node-id="685"><g clip-path="url(#SVGID_2_)" group-id="1,4" node-id="425"><path d="M 1205.32 6.25 C 1205.32 164.91 1076.70 293.53 918.04 293.53 C 759.38 293.53 630.76 164.91 630.76 6.25 C 630.76 -152.42 759.38 -281.04 918.04 -281.04 C 1076.70 -281.04 1205.32 -152.42 1205.32 6.25 Z" fill="url(#SVGID_4_)" fill-rule="nonzero" group-id="1,4" node-id="427" stroke="none" target-height="574.562" target-width="574.5621" target-x="630.759" target-y="-281.036"/></g></g><g node-id="686"><g clip-path="url(#SVGID_2_)" group-id="1,5" node-id="430"><path d="M 1255.18 543.17 C 1307.65 654.67 1182.01 824.19 974.56 921.80 C 767.11 1019.41 556.41 1008.15 503.95 896.65 C 451.48 785.15 577.12 615.64 784.57 518.03 C 992.02 420.42 1202.72 431.67 1255.18 543.17 Z" fill="url(#SVGID_5_)" fill-rule="nonzero" group-id="1,5" node-id="432" stroke="none" target-height="598.99097" target-width="856.16394" target-x="451.484" target-y="420.416"/></g></g><g node-id="687"><g clip-path="url(#SVGID_2_)" group-id="1,6" node-id="435"><path d="M 744.28 226.89 C 777.77 298.06 714.47 398.31 602.90 450.81 C 491.34 503.31 373.75 488.17 340.26 417.00 C 306.77 345.83 370.07 245.58 481.64 193.09 C 593.21 140.59 710.80 155.73 744.28 226.89 Z" fill="url(#SVGID_6_)" fill-rule="nonzero" group-id="1,6" node-id="437" stroke="none" target-height="362.716" target-width="470.998" target-x="306.773" target-y="140.589"/></g></g><g node-id="688"><g clip-path="url(#SVGID_2_)" group-id="1,7" node-id="440"><path d="M 512.92 565.67 C 546.41 636.84 483.11 737.09 371.54 789.59 C 259.97 842.08 142.38 826.94 108.90 755.78 C 75.41 684.61 138.71 584.36 250.28 531.86 C 361.84 479.36 479.43 494.50 512.92 565.67 Z" fill="url(#SVGID_7_)" fill-rule="nonzero" group-id="1,7" node-id="442" stroke="none" target-height="362.71698" target-width="470.99902" target-x="75.409" target-y="479.364"/></g></g><g node-id="689"><g clip-path="url(#SVGID_2_)" group-id="1,8" id="菱星组" node-id="30"><path d="M 850.68 570.05 L 849.07 568.44 C 849.07 568.44 839.11 567.40 837.00 565.28 C 834.88 563.17 833.42 551.05 833.42 551.05 L 832.07 549.69 L 830.68 551.08 C 830.68 551.08 830.01 562.80 827.31 565.12 C 824.61 567.43 815.21 568.30 815.21 568.30 L 813.46 570.05 L 815.40 571.99 C 815.40 571.99 824.29 571.76 827.35 575.02 C 830.42 578.29 830.94 587.72 830.94 587.72 L 832.07 588.85 L 833.32 587.60 C 833.32 587.60 833.42 578.58 836.67 575.14 C 839.92 571.69 849.16 571.57 849.16 571.57 L 850.68 570.05 Z" fill="url(#SVGID_8_)" fill-rule="nonzero" group-id="1,8" node-id="446" stroke="none" target-height="39.156982" target-width="37.218994" target-x="813.46" target-y="549.693"/><path d="M 544.79 157.16 L 543.18 156.48 C 543.18 156.48 533.22 154.50 531.11 152.39 C 528.99 150.27 527.05 138.16 527.05 138.16 L 526.18 136.80 L 525.31 138.19 C 525.31 138.19 524.12 149.91 521.42 152.22 C 518.72 154.54 509.31 156.48 509.31 156.48 L 507.57 157.15 L 508.88 157.59 C 508.88 157.59 518.40 158.87 521.46 162.13 C 524.53 165.39 525.89 174.83 525.89 174.83 L 526.18 175.96 L 526.66 174.71 C 526.66 174.71 527.53 165.69 530.78 162.24 C 534.03 158.80 543.27 157.83 543.27 157.83 L 544.79 157.16 Z" fill="url(#SVGID_9_)" fill-rule="nonzero" group-id="1,8" node-id="448" stroke="none" target-height="39.156006" target-width="37.218994" target-x="507.57" target-y="136.801"/><path d="M 922.30 353.91 L 921.49 353.10 C 921.49 353.10 916.46 352.57 915.39 351.51 C 914.32 350.44 913.59 344.32 913.59 344.32 L 912.90 343.63 L 912.20 344.33 C 912.20 344.33 911.86 350.25 910.50 351.42 C 909.14 352.59 904.39 353.03 904.39 353.03 L 903.51 353.91 L 904.49 354.89 C 904.49 354.89 908.97 354.78 910.52 356.43 C 912.07 358.07 912.33 362.84 912.33 362.84 L 912.90 363.41 L 913.54 362.77 C 913.54 362.77 913.59 358.22 915.23 356.48 C 916.87 354.75 921.53 354.68 921.53 354.68 L 922.30 353.91 Z" fill="url(#SVGID_10_)" fill-rule="nonzero" group-id="1,8" node-id="450" stroke="none" target-height="19.772003" target-width="18.792969" target-x="903.507" target-y="343.635"/><path d="M 160.87 569.66 L 160.06 568.85 C 160.06 568.85 155.03 568.33 153.96 567.26 C 152.89 566.19 152.16 560.07 152.16 560.07 L 151.47 559.39 L 150.77 560.09 C 150.77 560.09 150.43 566.01 149.07 567.17 C 147.71 568.34 142.96 568.78 142.96 568.78 L 142.08 569.66 L 143.06 570.64 C 143.06 570.64 147.54 570.53 149.09 572.18 C 150.64 573.82 150.90 578.59 150.90 578.59 L 151.47 579.16 L 152.11 578.53 C 152.11 578.53 152.16 573.97 153.80 572.23 C 155.44 570.50 160.10 570.43 160.10 570.43 L 160.87 569.66 Z" fill="url(#SVGID_11_)" fill-rule="nonzero" group-id="1,8" node-id="452" stroke="none" target-height="19.772034" target-width="18.793" target-x="142.078" target-y="559.386"/><path d="M 519.10 116.45 L 518.29 115.64 C 518.29 115.64 513.26 115.11 512.19 114.04 C 511.12 112.98 510.39 106.86 510.39 106.86 L 509.70 106.17 L 509.00 106.87 C 509.00 106.87 508.66 112.79 507.30 113.96 C 505.93 115.13 501.19 115.57 501.19 115.57 L 500.31 116.45 L 501.29 117.43 C 501.29 117.43 505.77 117.32 507.32 118.96 C 508.87 120.61 509.13 125.37 509.13 125.37 L 509.70 125.94 L 510.33 125.31 C 510.33 125.31 510.39 120.76 512.03 119.02 C 513.67 117.28 518.33 117.22 518.33 117.22 L 519.10 116.45 Z" fill="url(#SVGID_12_)" fill-rule="nonzero" group-id="1,8" node-id="454" stroke="none" target-height="19.772003" target-width="18.793" target-x="500.306" target-y="106.173"/><path d="M 694.72 166.66 L 693.91 165.85 C 693.91 165.85 688.88 165.32 687.81 164.25 C 686.75 163.18 686.01 157.06 686.01 157.06 L 685.33 156.38 L 684.63 157.08 C 684.63 157.08 684.29 163.00 682.92 164.17 C 681.56 165.34 676.81 165.78 676.81 165.78 L 675.93 166.66 L 676.91 167.64 C 676.91 167.64 681.40 167.52 682.95 169.17 C 684.50 170.82 684.76 175.58 684.76 175.58 L 685.33 176.15 L 685.96 175.52 C 685.96 175.52 686.01 170.97 687.65 169.23 C 689.29 167.49 693.96 167.42 693.96 167.42 L 694.72 166.66 Z" fill="url(#SVGID_13_)" fill-rule="nonzero" group-id="1,8" node-id="456" stroke="none" target-height="19.772003" target-width="18.792969" target-x="675.931" target-y="156.379"/><path d="M 455.13 604.75 L 454.32 603.94 C 454.32 603.94 449.29 603.41 448.22 602.34 C 447.15 601.28 446.42 595.16 446.42 595.16 L 445.73 594.47 L 445.03 595.17 C 445.03 595.17 444.69 601.09 443.33 602.26 C 441.96 603.43 437.22 603.87 437.22 603.87 L 436.34 604.75 L 437.32 605.73 C 437.32 605.73 441.80 605.62 443.35 607.26 C 444.90 608.91 445.16 613.67 445.16 613.67 L 445.73 614.25 L 446.37 613.61 C 446.37 613.61 446.42 609.06 448.06 607.32 C 449.70 605.58 454.36 605.52 454.36 605.52 L 455.13 604.75 Z" fill="url(#SVGID_14_)" fill-rule="nonzero" group-id="1,8" node-id="458" stroke="none" target-height="19.771973" target-width="18.793" target-x="436.337" target-y="594.473"/></g></g><g node-id="690"><g clip-path="url(#SVGID_2_)" group-id="1,9" id="流星组" node-id="59"><path d="M 889.03 462.68 C 883.89 467.82 877.54 469.82 874.86 467.14 C 872.18 464.46 874.18 458.12 879.33 452.97 C 884.47 447.83 970.34 371.00 970.34 371.00 L 971.01 371.66 C 971.01 371.66 893.75 457.96 889.03 462.68 Z" fill="url(#SVGID_15_)" fill-opacity="0.3" fill-rule="nonzero" group-id="1,9,21,31" node-id="466" stroke="none" target-height="98.82202" target-width="98.82196" target-x="872.184" target-y="370.999"/><path d="M 884.86 462.16 C 882.30 464.72 879.15 465.72 877.82 464.38 C 876.48 463.05 877.48 459.90 880.04 457.34 C 882.60 454.78 925.30 416.57 925.30 416.57 L 925.63 416.90 C 925.63 416.90 887.21 459.82 884.86 462.16 Z" fill="url(#SVGID_16_)" fill-opacity="0.6" fill-rule="nonzero" group-id="1,9,21,32" node-id="471" stroke="none" target-height="49.147003" target-width="49.148987" target-x="876.482" target-y="416.569"/><path d="M 881.80 464.10 C 880.59 465.32 878.77 465.47 877.75 464.45 C 876.73 463.43 876.88 461.61 878.10 460.40 C 879.31 459.19 900.23 441.71 900.23 441.71 L 900.48 441.97 C 900.48 441.97 882.91 462.99 881.80 464.10 Z" fill="url(#SVGID_17_)" fill-rule="nonzero" group-id="1,9,21" node-id="474" stroke="none" target-height="23.756012" target-width="23.757019" target-x="876.727" target-y="441.715"/><path d="M 303.03 515.79 C 297.89 520.94 291.54 522.93 288.87 520.26 C 286.19 517.58 288.19 511.23 293.33 506.09 C 298.48 500.94 384.35 424.11 384.35 424.11 L 385.01 424.77 C 385.01 424.77 307.75 511.07 303.03 515.79 Z" fill="url(#SVGID_18_)" fill-opacity="0.3" fill-rule="nonzero" group-id="1,9,22,33" node-id="481" stroke="none" target-height="98.82199" target-width="98.82199" target-x="286.186" target-y="424.113"/><path d="M 298.86 515.28 C 296.30 517.84 293.15 518.83 291.82 517.50 C 290.48 516.17 291.48 513.01 294.04 510.45 C 296.60 507.89 339.30 469.68 339.30 469.68 L 339.63 470.01 C 339.63 470.01 301.21 512.93 298.86 515.28 Z" fill="url(#SVGID_19_)" fill-opacity="0.6" fill-rule="nonzero" group-id="1,9,22,34" node-id="486" stroke="none" target-height="49.147003" target-width="49.14798" target-x="290.484" target-y="469.683"/><path d="M 295.80 517.22 C 294.59 518.43 292.77 518.59 291.75 517.56 C 290.73 516.54 290.88 514.73 292.10 513.51 C 293.31 512.30 314.23 494.83 314.23 494.83 L 314.49 495.08 C 314.49 495.08 296.92 516.10 295.80 517.22 Z" fill="url(#SVGID_20_)" fill-rule="nonzero" group-id="1,9,22" node-id="489" stroke="none" target-height="23.756012" target-width="23.757996" target-x="290.729" target-y="494.829"/><path d="M 603.30 67.04 C 598.16 72.18 591.81 74.18 589.13 71.50 C 586.45 68.82 588.45 62.48 593.60 57.33 C 598.74 52.19 684.61 -24.64 684.61 -24.64 L 685.28 -23.98 C 685.28 -23.98 608.02 62.32 603.30 67.04 Z" fill="url(#SVGID_21_)" fill-opacity="0.3" fill-rule="nonzero" group-id="1,9,23" node-id="494" stroke="none" target-height="98.822" target-width="98.82202" target-x="586.454" target-y="-24.642"/><path d="M 634.32 498.73 C 629.17 503.88 622.83 505.88 620.15 503.20 C 617.47 500.52 619.47 494.17 624.61 489.03 C 629.76 483.88 715.63 407.05 715.63 407.05 L 716.29 407.72 C 716.29 407.72 639.03 494.01 634.32 498.73 Z" fill="url(#SVGID_22_)" fill-opacity="0.3" fill-rule="nonzero" group-id="1,9,24" node-id="499" stroke="none" target-height="98.82202" target-width="98.82202" target-x="617.47" target-y="407.054"/></g></g><g node-id="691"><g clip-path="url(#SVGID_2_)" group-id="1,10" node-id="503"><path d="M 246.17 71.57 C 246.17 71.57 251.60 222.77 339.02 211.72 C 426.45 200.67 528.22 235.18 559.23 288.10 C 590.25 341.02 701.32 339.08 724.97 264.45 C 748.62 189.82 916.10 57.03 1018.07 155.31 C 1120.03 253.59 990.73 239.06 990.73 239.06 C 990.73 239.06 834.30 273.37 812.39 391.81 C 790.49 510.25 568.54 486.40 541.20 419.14 C 513.87 351.87 313.43 417.39 278.93 464.69 C 244.42 511.99 47.67 513.74 27.70 410.03 C 7.74 306.32 246.17 71.57 246.17 71.57 Z" fill="#2e2e6c" fill-rule="nonzero" group-id="1,10" node-id="505" stroke="none" target-height="456.70203" target-width="1112.292" target-x="7.737" target-y="57.034"/><path d="M 178.43 495.96 C 176.19 495.96 173.95 495.94 171.69 495.88 C 155.17 495.46 139.07 493.52 123.86 490.12 C 111.81 487.43 100.51 483.84 90.28 479.46 C 79.39 474.79 69.66 469.21 61.36 462.86 C 42.93 448.74 31.54 430.98 27.51 410.06 C 25.13 397.67 26.36 382.73 31.17 365.66 C 35.54 350.15 42.97 332.54 53.24 313.30 C 70.54 280.92 96.13 243.40 129.30 201.79 C 185.76 130.95 245.44 72.02 246.03 71.43 L 246.35 71.12 L 246.36 71.56 C 246.37 71.79 247.25 94.53 253.25 121.35 C 258.78 146.09 269.94 179.44 291.63 197.89 C 302.75 207.34 315.67 212.10 330.14 212.10 C 333.03 212.10 335.98 211.91 339.00 211.53 C 360.38 208.83 382.92 208.77 405.97 211.36 C 428.25 213.86 449.91 218.70 470.34 225.74 C 490.86 232.80 508.96 241.68 524.14 252.12 C 539.96 263.01 551.83 275.08 559.40 288.00 C 574.37 313.54 609.59 327.88 647.03 323.69 C 685.31 319.40 714.38 297.23 724.78 264.39 C 732.36 240.47 754.75 210.59 784.68 184.44 C 817.78 155.51 855.79 134.56 891.70 125.45 C 915.08 119.52 937.27 118.62 957.66 122.78 C 980.32 127.40 1000.69 138.30 1018.20 155.17 C 1049.83 185.66 1062.43 208.43 1055.66 222.84 C 1053.23 228.00 1048.30 232.06 1040.99 234.93 C 1035.17 237.22 1027.83 238.76 1019.18 239.50 C 1004.80 240.73 991.49 239.33 990.74 239.25 C 990.12 239.39 980.42 241.59 966.00 246.45 C 952.32 251.07 931.47 259.12 909.86 271.19 C 871.72 292.50 823.89 330.74 812.59 391.84 C 810.26 404.43 805.55 415.91 798.59 425.96 C 792.09 435.36 783.55 443.62 773.21 450.52 C 754.43 463.06 729.45 471.22 700.96 474.12 C 693.18 474.91 685.22 475.30 677.20 475.30 C 651.16 475.30 624.45 471.20 601.22 463.45 C 586.08 458.39 573.20 452.09 562.93 444.73 C 552.12 436.97 544.75 428.38 541.02 419.21 C 534.79 403.87 519.27 394.57 494.91 391.58 C 463.48 387.72 417.07 395.22 370.78 411.64 C 349.70 419.12 330.08 427.94 314.02 437.14 C 297.42 446.67 285.34 456.23 279.09 464.81 C 274.25 471.44 266.23 477.29 255.24 482.19 C 244.68 486.91 231.97 490.51 217.47 492.89 C 205.00 494.93 191.90 495.96 178.43 495.96 Z M 245.99 72.02 C 241.25 76.71 183.94 133.86 129.60 202.03 C 96.44 243.62 70.87 281.12 53.58 313.49 C 31.99 353.91 23.35 386.38 27.89 409.99 C 38.09 462.97 92.45 482.70 123.94 489.74 C 153.60 496.38 187.67 497.38 217.40 492.50 C 231.87 490.13 244.55 486.54 255.08 481.84 C 266.00 476.96 273.98 471.15 278.77 464.58 C 285.06 455.96 297.18 446.36 313.82 436.81 C 329.90 427.59 349.55 418.76 370.64 411.28 C 392.42 403.55 414.87 397.59 435.57 394.04 C 458.42 390.12 478.39 389.17 494.96 391.20 C 506.64 392.63 516.44 395.58 524.09 399.95 C 532.32 404.67 538.14 411.10 541.38 419.06 C 548.65 436.96 569.95 452.59 601.34 463.08 C 631.68 473.21 667.97 477.09 700.91 473.74 C 763.18 467.39 803.74 437.52 812.20 391.77 C 817.20 364.72 829.70 339.85 849.35 317.84 C 865.07 300.25 885.37 284.43 909.68 270.85 C 931.31 258.76 952.18 250.71 965.88 246.08 C 980.73 241.07 990.59 238.89 990.69 238.87 L 990.72 238.86 L 990.75 238.86 C 990.89 238.88 1004.46 240.37 1019.15 239.11 C 1027.76 238.37 1035.06 236.85 1040.85 234.57 C 1048.06 231.74 1052.92 227.74 1055.30 222.68 C 1062.00 208.43 1049.43 185.81 1017.93 155.45 C 984.82 123.54 941.20 113.29 891.79 125.83 C 855.94 134.92 817.99 155.84 784.93 184.73 C 755.06 210.84 732.71 240.66 725.15 264.51 C 722.35 273.36 718.20 281.51 712.82 288.73 C 707.76 295.52 701.58 301.54 694.46 306.60 C 681.18 316.05 664.79 322.09 647.07 324.08 C 642.89 324.54 638.68 324.77 634.48 324.78 C 620.98 324.78 607.58 322.39 595.77 317.79 C 579.35 311.39 566.65 301.16 559.06 288.20 C 544.14 262.75 512.59 240.70 470.21 226.11 C 428.67 211.80 380.86 206.63 339.04 211.92 C 336.01 212.30 333.04 212.49 330.13 212.49 C 315.56 212.49 302.56 207.70 291.37 198.19 C 281.75 190.01 273.38 178.26 266.49 163.27 C 260.98 151.28 256.39 137.21 252.86 121.43 C 247.32 96.63 246.15 75.31 245.99 72.02 Z" fill="#ffffff" fill-opacity="0.2" fill-rule="nonzero" group-id="1,10,25" node-id="509" stroke="none" target-height="426.26" target-width="1039.0859" target-x="23.347" target-y="71.123"/></g></g><g node-id="692"><g clip-path="url(#SVGID_2_)" group-id="1,11" id="点星" node-id="105"><path d="M 756.18 89.02 C 756.18 90.20 755.22 91.15 754.05 91.15 C 752.87 91.15 751.91 90.20 751.91 89.02 C 751.91 87.84 752.87 86.89 754.05 86.89 C 755.22 86.89 756.18 87.84 756.18 89.02 Z" fill="#ffffff" fill-rule="nonzero" group-id="1,11" node-id="514" stroke="none" target-height="4.264" target-width="4.263977" target-x="751.914" target-y="86.886"/><path d="M 679.61 623.84 C 679.61 625.02 678.65 625.97 677.48 625.97 C 676.30 625.97 675.35 625.02 675.35 623.84 C 675.35 622.66 676.30 621.71 677.48 621.71 C 678.65 621.71 679.61 622.66 679.61 623.84 Z" fill="#ffffff" fill-rule="nonzero" group-id="1,11" node-id="516" stroke="none" target-height="4.264038" target-width="4.264038" target-x="675.345" target-y="621.709"/><path d="M 406.67 444.92 C 406.67 446.10 405.72 447.05 404.54 447.05 C 403.36 447.05 402.41 446.10 402.41 444.92 C 402.41 443.74 403.36 442.79 404.54 442.79 C 405.72 442.79 406.67 443.74 406.67 444.92 Z" fill="#ffffff" fill-rule="nonzero" group-id="1,11" node-id="518" stroke="none" target-height="4.2640076" target-width="4.2640076" target-x="402.409" target-y="442.788"/><path d="M 517.36 461.79 C 517.36 462.64 516.67 463.34 515.81 463.34 C 514.95 463.34 514.26 462.64 514.26 461.79 C 514.26 460.93 514.95 460.23 515.81 460.23 C 516.67 460.23 517.36 460.93 517.36 461.79 Z" fill="#ffffff" fill-rule="nonzero" group-id="1,11" node-id="520" stroke="none" target-height="3.1019897" target-width="3.1019897" target-x="514.258" target-y="460.234"/><path d="M 895.94 397.43 C 895.94 398.28 895.25 398.98 894.39 398.98 C 893.53 398.98 892.84 398.28 892.84 397.43 C 892.84 396.57 893.53 395.88 894.39 395.88 C 895.25 395.88 895.94 396.57 895.94 397.43 Z" fill="#ffffff" fill-rule="nonzero" group-id="1,11" node-id="522" stroke="none" target-height="3.1019897" target-width="3.1019897" target-x="892.84" target-y="395.877"/><path d="M 855.82 410.80 C 855.82 411.66 855.12 412.35 854.26 412.35 C 853.41 412.35 852.71 411.66 852.71 410.80 C 852.71 409.95 853.41 409.25 854.26 409.25 C 855.12 409.25 855.82 409.95 855.82 410.80 Z" fill="#ffffff" fill-rule="nonzero" group-id="1,11" node-id="524" stroke="none" target-height="3.1019897" target-width="3.1019897" target-x="852.714" target-y="409.252"/><path d="M 934.71 474.38 C 934.71 475.24 934.02 475.94 933.16 475.94 C 932.30 475.94 931.61 475.24 931.61 474.38 C 931.61 473.53 932.30 472.83 933.16 472.83 C 934.02 472.83 934.71 473.53 934.71 474.38 Z" fill="#ffffff" fill-rule="nonzero" group-id="1,11" node-id="526" stroke="none" target-height="3.1019897" target-width="3.1019897" target-x="931.61" target-y="472.834"/><path d="M 829.07 505.98 C 829.07 506.84 828.37 507.53 827.51 507.53 C 826.66 507.53 825.96 506.84 825.96 505.98 C 825.96 505.13 826.66 504.43 827.51 504.43 C 828.37 504.43 829.07 505.13 829.07 505.98 Z" fill="#ffffff" fill-rule="nonzero" group-id="1,11" node-id="528" stroke="none" target-height="3.1019897" target-width="3.1019897" target-x="825.963" target-y="504.431"/><path d="M 898.27 497.45 C 898.27 498.31 897.57 499.00 896.72 499.00 C 895.86 499.00 895.17 498.31 895.17 497.45 C 895.17 496.60 895.86 495.90 896.72 495.90 C 897.57 495.90 898.27 496.60 898.27 497.45 Z" fill="#ffffff" fill-rule="nonzero" group-id="1,11" node-id="530" stroke="none" target-height="3.1019897" target-width="3.1019897" target-x="895.166" target-y="495.902"/><path d="M 389.81 140.58 C 389.81 141.44 389.11 142.13 388.26 142.13 C 387.40 142.13 386.71 141.44 386.71 140.58 C 386.71 139.72 387.40 139.03 388.26 139.03 C 389.11 139.03 389.81 139.72 389.81 140.58 Z" fill="#ffffff" fill-rule="nonzero" group-id="1,11" node-id="532" stroke="none" target-height="3.102005" target-width="3.1019897" target-x="386.707" target-y="139.03"/><path d="M 508.83 69.05 C 508.83 69.91 508.14 70.60 507.28 70.60 C 506.42 70.60 505.73 69.91 505.73 69.05 C 505.73 68.20 506.42 67.50 507.28 67.50 C 508.14 67.50 508.83 68.20 508.83 69.05 Z" fill="#ffffff" fill-rule="nonzero" group-id="1,11" node-id="534" stroke="none" target-height="3.1019974" target-width="3.1019897" target-x="505.728" target-y="67.501"/><path d="M 607.11 117.51 C 607.11 118.37 606.42 119.06 605.56 119.06 C 604.70 119.06 604.01 118.37 604.01 117.51 C 604.01 116.66 604.70 115.96 605.56 115.96 C 606.42 115.96 607.11 116.66 607.11 117.51 Z" fill="#ffffff" fill-rule="nonzero" group-id="1,11" node-id="536" stroke="none" target-height="3.102005" target-width="3.1020508" target-x="604.009" target-y="115.962"/><path d="M 707.91 223.16 C 707.91 224.02 707.22 224.71 706.36 224.71 C 705.50 224.71 704.81 224.02 704.81 223.16 C 704.81 222.30 705.50 221.61 706.36 221.61 C 707.22 221.61 707.91 222.30 707.91 223.16 Z" fill="#ffffff" fill-rule="nonzero" group-id="1,11" node-id="538" stroke="none" target-height="3.102005" target-width="3.1019897" target-x="704.809" target-y="221.609"/><path d="M 613.31 300.89 C 613.31 301.75 612.62 302.44 611.76 302.44 C 610.91 302.44 610.21 301.75 610.21 300.89 C 610.21 300.04 610.91 299.34 611.76 299.34 C 612.62 299.34 613.31 300.04 613.31 300.89 Z" fill="#ffffff" fill-rule="nonzero" group-id="1,11" node-id="540" stroke="none" target-height="3.1019897" target-width="3.1020508" target-x="610.212" target-y="299.341"/><path d="M 342.70 523.04 C 342.70 523.90 342.01 524.59 341.15 524.59 C 340.30 524.59 339.60 523.90 339.60 523.04 C 339.60 522.18 340.30 521.49 341.15 521.49 C 342.01 521.49 342.70 522.18 342.70 523.04 Z" fill="#ffffff" fill-rule="nonzero" group-id="1,11" node-id="542" stroke="none" target-height="3.1019897" target-width="3.1020203" target-x="339.602" target-y="521.489"/><path d="M 375.46 623.84 C 375.46 624.70 374.77 625.39 373.91 625.39 C 373.06 625.39 372.36 624.70 372.36 623.84 C 372.36 622.98 373.06 622.29 373.91 622.29 C 374.77 622.29 375.46 622.98 375.46 623.84 Z" fill="#ffffff" fill-rule="nonzero" group-id="1,11" node-id="544" stroke="none" target-height="3.1020508" target-width="3.1019897" target-x="372.362" target-y="622.29"/><path d="M 459.21 662.61 C 459.21 663.47 458.51 664.16 457.65 664.16 C 456.80 664.16 456.10 663.47 456.10 662.61 C 456.10 661.75 456.80 661.06 457.65 661.06 C 458.51 661.06 459.21 661.75 459.21 662.61 Z" fill="#ffffff" fill-rule="nonzero" group-id="1,11" node-id="546" stroke="none" target-height="3.1019897" target-width="3.1019897" target-x="456.104" target-y="661.059"/><path d="M 632.31 679.09 C 632.31 679.94 631.62 680.64 630.76 680.64 C 629.90 680.64 629.21 679.94 629.21 679.09 C 629.21 678.23 629.90 677.54 630.76 677.54 C 631.62 677.54 632.31 678.23 632.31 679.09 Z" fill="#ffffff" fill-rule="nonzero" group-id="1,11" node-id="548" stroke="none" target-height="3.1019897" target-width="3.1019897" target-x="629.209" target-y="677.536"/><path d="M 719.35 636.25 C 719.35 637.10 718.65 637.80 717.80 637.80 C 716.94 637.80 716.25 637.10 716.25 636.25 C 716.25 635.39 716.94 634.70 717.80 634.70 C 718.65 634.70 719.35 635.39 719.35 636.25 Z" fill="#ffffff" fill-rule="nonzero" group-id="1,11" node-id="550" stroke="none" target-height="3.1019897" target-width="3.1020508" target-x="716.246" target-y="634.696"/><path d="M 766.26 582.16 C 766.26 583.02 765.56 583.72 764.71 583.72 C 763.85 583.72 763.16 583.02 763.16 582.16 C 763.16 581.31 763.85 580.61 764.71 580.61 C 765.56 580.61 766.26 581.31 766.26 582.16 Z" fill="#ffffff" fill-rule="nonzero" group-id="1,11" node-id="552" stroke="none" target-height="3.1020508" target-width="3.1019897" target-x="763.157" target-y="580.613"/><path d="M 674.76 557.16 C 674.76 558.01 674.07 558.71 673.21 558.71 C 672.36 558.71 671.66 558.01 671.66 557.16 C 671.66 556.30 672.36 555.61 673.21 555.61 C 674.07 555.61 674.76 556.30 674.76 557.16 Z" fill="#ffffff" fill-rule="nonzero" group-id="1,11" node-id="554" stroke="none" target-height="3.1019897" target-width="3.1019897" target-x="671.661" target-y="555.606"/><path d="M 566.40 591.27 C 566.40 592.13 565.71 592.83 564.85 592.83 C 564.00 592.83 563.30 592.13 563.30 591.27 C 563.30 590.42 564.00 589.72 564.85 589.72 C 565.71 589.72 566.40 590.42 566.40 591.27 Z" fill="#ffffff" fill-rule="nonzero" group-id="1,11" node-id="556" stroke="none" target-height="3.1019897" target-width="3.1019897" target-x="563.301" target-y="589.723"/><path d="M 559.04 518.97 C 559.04 519.83 558.34 520.52 557.49 520.52 C 556.63 520.52 555.93 519.83 555.93 518.97 C 555.93 518.11 556.63 517.42 557.49 517.42 C 558.34 517.42 559.04 518.11 559.04 518.97 Z" fill="#ffffff" fill-rule="nonzero" group-id="1,11" node-id="558" stroke="none" target-height="3.1019897" target-width="3.1019897" target-x="555.935" target-y="517.419"/></g></g><g node-id="693"><g clip-path="url(#SVGID_2_)" group-id="1,12" node-id="561"><path d="M 896.91 212.99 C 869.55 212.99 839.68 205.16 811.71 189.01 C 744.99 150.49 713.91 78.97 742.42 29.58 C 770.94 -19.81 848.42 -28.66 915.14 9.86 C 981.86 48.38 1012.94 119.91 984.43 169.30 C 967.87 197.98 934.79 212.99 896.91 212.99 Z M 829.90 -12.13 C 792.74 -12.13 760.35 2.53 744.16 30.58 C 716.19 79.02 746.94 149.31 812.71 187.28 C 878.48 225.25 954.73 216.73 982.69 168.30 L 983.56 168.80 L 982.69 168.30 C 1010.66 119.86 979.91 49.57 914.14 11.60 C 886.46 -4.38 856.92 -12.13 829.90 -12.13 Z" fill="#ffffff" fill-opacity="0.3" fill-rule="nonzero" group-id="1,12,26" node-id="565" stroke="none" target-height="253.90701" target-width="299.03497" target-x="713.908" target-y="-28.656"/><path d="M 907.00 246.90 C 871.45 246.90 832.64 236.73 796.28 215.74 C 754.34 191.52 721.87 156.69 704.84 117.64 C 687.77 78.49 688.27 39.80 706.23 8.68 C 724.20 -22.43 757.46 -42.21 799.90 -47.00 C 842.22 -51.78 888.63 -41.08 930.57 -16.86 C 1017.25 33.18 1057.64 126.07 1020.62 190.19 C 999.13 227.42 956.19 246.90 907.00 246.90 Z M 819.96 -46.11 C 813.27 -46.11 806.65 -45.75 800.12 -45.01 C 758.33 -40.29 725.60 -20.87 707.96 9.68 C 690.32 40.23 689.87 78.29 706.68 116.84 C 723.53 155.50 755.71 190.01 797.28 214.01 C 883.00 263.50 982.42 252.37 1018.89 189.20 L 1019.75 189.70 L 1018.89 189.20 C 1055.36 126.02 1015.29 34.36 929.57 -15.13 C 894.47 -35.39 856.24 -46.11 819.96 -46.11 Z" fill="#ffffff" fill-opacity="0.3" fill-rule="nonzero" group-id="1,12,27" node-id="570" stroke="none" target-height="315.278" target-width="369.86993" target-x="687.773" target-y="-51.778"/><path d="M 916.93 280.26 C 873.32 280.26 825.71 267.79 781.10 242.03 C 674.79 180.65 625.23 66.75 670.63 -11.87 C 716.02 -90.50 839.44 -104.53 945.75 -43.15 C 1052.06 18.23 1101.62 132.13 1056.22 210.75 C 1029.88 256.38 977.24 280.26 916.93 280.26 Z M 809.88 -79.40 C 750.29 -79.40 698.34 -55.88 672.36 -10.87 C 627.52 66.80 676.75 179.47 782.10 240.30 C 887.46 301.12 1009.65 287.42 1054.49 209.75 L 1054.49 209.75 C 1099.34 132.08 1050.11 19.41 944.75 -41.42 C 900.44 -67.00 853.14 -79.40 809.88 -79.40 Z" fill="#ffffff" fill-opacity="0.3" fill-rule="nonzero" group-id="1,12,28" node-id="575" stroke="none" target-height="405.65298" target-width="476.38507" target-x="625.233" target-y="-104.529"/></g></g><g node-id="694"><g clip-path="url(#SVGID_2_)" group-id="1,13" node-id="579"><path d="M 393.49 583.90 C 393.49 707.12 293.60 807.01 170.37 807.01 C 47.15 807.01 -52.74 707.12 -52.74 583.90 C -52.74 460.67 47.15 360.78 170.37 360.78 C 293.60 360.78 393.49 460.67 393.49 583.90 Z" fill="url(#SVGID_23_)" fill-rule="nonzero" group-id="1,13" node-id="581" stroke="none" target-height="446.234" target-width="446.23398" target-x="-52.744" target-y="360.779"/><path d="M 311.54 583.90 C 311.54 661.86 248.34 725.07 170.37 725.07 C 92.41 725.07 29.20 661.86 29.20 583.90 C 29.20 505.93 92.41 442.73 170.37 442.73 C 248.34 442.73 311.54 505.93 311.54 583.90 Z" fill="url(#SVGID_24_)" fill-rule="nonzero" group-id="1,13" node-id="583" stroke="none" target-height="282.33997" target-width="282.34" target-x="29.203" target-y="442.726"/><path d="M 301.68 531.96 C 302.91 535.08 303.11 535.31 304.13 538.55 C 346.04 542.57 348.98 558.84 350.26 569.18 C 352.72 588.94 286.21 618.84 171.15 633.14 C 56.09 647.45 -38.97 636.25 -41.42 616.48 C -42.80 605.43 -15.20 588.84 29.54 573.86 C 29.77 570.50 30.12 567.17 30.60 563.87 C -20.67 580.23 -52.65 600.05 -50.47 617.61 C -46.77 647.36 53.55 659.37 173.60 644.44 C 293.66 629.51 387.98 593.29 384.28 563.55 C 382.22 547.00 350.28 535.95 301.68 531.96 Z" fill="url(#SVGID_25_)" fill-opacity="0.4" fill-rule="nonzero" group-id="1,13,29" node-id="587" stroke="none" target-height="127.41199" target-width="440.62698" target-x="-52.649" target-y="531.956"/></g></g><g node-id="695"><g clip-path="url(#SVGID_2_)" group-id="1,14" node-id="591"><path d="M 622.81 47.53 C 622.81 104.81 576.38 151.24 519.10 151.24 C 461.83 151.24 415.40 104.81 415.40 47.53 C 415.40 -9.74 461.83 -56.17 519.10 -56.17 C 576.38 -56.17 622.81 -9.74 622.81 47.53 Z" fill="url(#SVGID_26_)" fill-rule="nonzero" group-id="1,14" node-id="593" stroke="none" target-height="207.416" target-width="207.41602" target-x="415.396" target-y="-56.173"/><path d="M 584.72 47.53 C 584.72 83.77 555.34 113.15 519.10 113.15 C 482.86 113.15 453.49 83.77 453.49 47.53 C 453.49 11.30 482.86 -18.08 519.10 -18.08 C 555.34 -18.08 584.72 11.30 584.72 47.53 Z" fill="url(#SVGID_27_)" fill-rule="nonzero" group-id="1,14" node-id="595" stroke="none" target-height="131.236" target-width="131.236" target-x="453.486" target-y="-18.083"/></g></g><g clip-path="url(#SVGID_2_)" group-id="1,15" node-id="598"><path d="M 931.96 696.70 C 931.96 749.54 889.12 792.38 836.28 792.38 C 783.44 792.38 740.61 749.54 740.61 696.70 C 740.61 643.86 783.44 601.03 836.28 601.03 C 889.12 601.03 931.96 643.86 931.96 696.70 Z" fill="url(#SVGID_28_)" fill-rule="nonzero" group-id="1,15" node-id="600" stroke="none" target-height="191.34802" target-width="191.34796" target-x="740.609" target-y="601.027"/></g></g><g node-id="683"><path d="M 618.82 390.62 C 618.82 390.62 664.84 486.83 675.88 489.85 C 686.93 492.87 832.11 477.69 832.11 477.69 C 832.11 477.69 829.24 453.25 827.52 447.28 C 825.81 441.32 822.15 433.42 813.12 434.96 C 804.09 436.49 798.20 444.44 798.20 444.44 C 798.20 444.44 757.38 443.59 738.52 441.59 C 719.65 439.60 708.81 421.45 708.81 421.45 L 618.82 390.62 Z" fill="#1e1b63" fill-rule="nonzero" group-id="2" node-id="606" stroke="none" target-height="102.254" target-width="213.28699" target-x="618.82" target-y="390.615"/><g node-id="697"><path d="M 712.05 388.21 L 738.52 372.15 C 738.52 372.15 740.95 362.40 731.73 345.38 C 722.50 328.36 682.78 252.45 682.78 252.45 C 682.78 252.45 673.36 243.62 659.73 251.88 C 646.09 260.15 630.68 268.69 630.68 268.69 L 708.61 388.48 L 712.05 388.21 Z" fill="#c9c5ff" fill-rule="nonzero" group-id="2,16" node-id="610" stroke="none" target-height="144.86598" target-width="110.267944" target-x="630.681" target-y="243.615"/><path d="M 712.05 388.21 L 738.52 372.15 C 738.52 372.15 740.35 363.56 731.12 346.54 C 721.90 329.51 681.35 253.66 681.35 253.66 C 681.35 253.66 673.36 243.61 659.73 251.88 C 646.09 260.15 630.68 268.69 630.68 268.69 L 708.61 388.48 L 712.05 388.21 Z" fill="#3c3476" fill-rule="nonzero" group-id="2,16" node-id="612" stroke="none" target-height="144.86601" target-width="109.666016" target-x="630.68" target-y="243.614"/><g node-id="711"><g node-id="716"><g clip-path="url(#SVGID_30_)" group-id="2,16,30,35" node-id="616"><path d="M 728.83 240.77 C 728.83 269.92 705.20 293.56 676.05 293.56 C 646.89 293.56 623.26 269.92 623.26 240.77 C 623.26 211.62 646.89 187.99 676.05 187.99 C 705.20 187.99 728.83 211.62 728.83 240.77 Z" fill="url(#SVGID_31_)" fill-rule="nonzero" group-id="2,16,30,35" node-id="618" stroke="none" target-height="105.57001" target-width="105.56995" target-x="623.262" target-y="187.987"/></g></g><g clip-path="url(#SVGID_30_)" group-id="2,16,30,36" node-id="621"><path d="M 809.27 366.18 C 809.27 395.34 785.64 418.97 756.49 418.97 C 727.34 418.97 703.70 395.34 703.70 366.18 C 703.70 337.03 727.34 313.40 756.49 313.40 C 785.64 313.40 809.27 337.03 809.27 366.18 Z" fill="url(#SVGID_32_)" fill-rule="nonzero" group-id="2,16,30,36" node-id="623" stroke="none" target-height="105.56998" target-width="105.57001" target-x="703.704" target-y="313.398"/></g></g></g><path d="M 521.29 355.51 C 521.29 355.51 516.11 351.34 481.79 355.54 C 476.55 355.94 476.86 363.41 484.70 362.66 C 489.38 362.29 493.79 361.95 493.79 361.95 C 493.79 361.95 486.00 366.85 492.75 371.73 C 498.43 371.71 499.09 371.24 499.09 371.24 C 499.09 371.24 499.94 383.93 522.11 378.60 C 520.90 363.03 521.29 355.51 521.29 355.51 Z" fill="url(#SVGID_33_)" fill-rule="nonzero" group-id="2" node-id="628" stroke="none" target-height="32.582" target-width="45.55899" target-x="476.553" target-y="351.343"/><path d="M 584.74 321.33 L 575.82 345.59 C 575.82 345.59 574.35 349.86 557.16 351.61 C 539.97 353.37 518.72 354.60 518.72 354.60 L 520.71 380.23 L 574.55 386.30 C 574.55 386.30 594.18 387.40 600.36 377.77 C 606.54 368.15 597.72 343.88 597.72 343.88 L 584.74 321.33 Z" fill="#a6c8ff" fill-rule="nonzero" group-id="2" node-id="630" stroke="none" target-height="66.069" target-width="87.81598" target-x="518.721" target-y="321.333"/><path d="M 602.37 364.11 C 600.71 363.00 599.15 363.33 598.62 367.55 C 597.30 377.99 582.11 377.27 579.97 382.11 C 579.21 383.85 579.91 385.17 581.13 386.14 C 587.42 385.61 596.50 383.78 600.36 377.78 C 602.50 374.44 602.84 369.34 602.37 364.11 Z" fill="#1e3359" fill-rule="nonzero" group-id="2" node-id="632" stroke="none" target-height="23.135986" target-width="23.632019" target-x="579.208" target-y="363"/><path d="M 523.83 354.29 C 520.65 354.49 518.72 354.61 518.72 354.61 L 520.72 380.23 L 525.89 380.81 L 523.83 354.29 Z" fill="#0456a1" fill-rule="nonzero" group-id="2" node-id="634" stroke="none" target-height="26.525024" target-width="7.166992" target-x="518.722" target-y="354.287"/><path d="M 666.67 465.89 C 666.67 465.89 607.44 379.72 595.32 362.92 C 583.20 346.12 577.93 328.24 576.65 301.04 C 583.17 295.81 608.57 282.06 608.57 282.06 L 620.75 271.13 C 620.75 271.13 629.62 262.26 661.35 290.56 C 693.07 318.87 705.61 380.26 706.28 394.21 C 708.13 401.96 717.26 435.62 734.35 443.30 C 751.44 450.98 762.99 462.28 827.32 460.74 C 832.04 460.79 837.15 465.94 842.28 503.38 C 847.41 540.82 846.68 542.12 840.65 543.00 C 822.88 544.39 807.13 520.11 805.71 507.19 C 788.52 508.94 732.62 515.51 715.34 510.76 C 689.80 506.64 666.67 465.89 666.67 465.89 Z" fill="#637fd1" fill-rule="nonzero" group-id="2" node-id="636" stroke="none" target-height="282.12402" target-width="270.765" target-x="576.647" target-y="262.263"/><path d="M 699.18 504.25 C 698.85 504.28 698.53 504.06 698.45 503.73 C 698.36 503.36 698.59 502.98 698.96 502.89 C 718.81 498.01 731.45 486.96 736.51 470.05 C 740.29 457.44 738.20 446.13 738.18 446.02 C 738.11 445.65 738.36 445.29 738.73 445.21 C 739.11 445.14 739.47 445.39 739.54 445.76 C 739.56 445.88 741.72 457.51 737.84 470.45 C 735.56 478.07 731.67 484.65 726.28 490.01 C 719.55 496.69 710.47 501.48 699.29 504.23 C 699.25 504.24 699.21 504.25 699.18 504.25 Z" fill="#25344f" fill-rule="nonzero" group-id="2,17" node-id="640" stroke="none" target-height="59.137024" target-width="43.353027" target-x="698.362" target-y="445.141"/><path d="M 684.19 490.60 C 683.86 490.63 683.55 490.41 683.47 490.08 C 683.38 489.71 683.60 489.33 683.97 489.24 C 708.75 483.14 719.40 469.98 723.96 460.00 C 728.90 449.22 727.99 439.78 727.98 439.69 C 727.94 439.31 728.22 438.97 728.60 438.93 C 728.61 438.93 728.61 438.93 728.62 438.93 C 728.99 438.90 729.32 439.17 729.36 439.55 C 729.40 439.94 730.31 449.45 725.22 460.58 C 722.23 467.11 717.78 472.82 711.99 477.56 C 704.78 483.45 695.47 487.84 684.30 490.59 C 684.27 490.59 684.23 490.60 684.19 490.60 Z" fill="#25344f" fill-rule="nonzero" group-id="2,18" node-id="645" stroke="none" target-height="51.73001" target-width="46.93097" target-x="683.377" target-y="438.899"/><path d="M 842.28 503.38 C 837.15 465.94 832.04 460.79 827.32 460.74 C 762.99 462.28 751.44 450.98 734.35 443.30 C 717.26 435.62 708.13 401.96 706.28 394.20 C 705.61 380.26 693.07 318.86 661.35 290.56 C 629.62 262.26 620.75 271.13 620.75 271.13 L 608.57 282.06 C 608.57 282.06 583.17 295.81 576.65 301.03 C 576.76 303.52 576.91 305.93 577.10 308.26 C 589.38 303.08 626.75 288.91 649.32 298.01 C 676.62 309.03 692.97 395.93 697.05 409.20 C 701.13 422.46 706.88 457.08 731.04 461.30 C 755.21 465.52 818.55 465.83 824.73 478.32 C 829.94 488.86 841.80 527.29 845.39 539.09 C 846.27 534.75 845.27 525.21 842.28 503.38 Z" fill="#49499b" fill-rule="nonzero" group-id="2" node-id="648" stroke="none" target-height="276.82498" target-width="269.625" target-x="576.647" target-y="262.262"/><path d="M 608.73 281.92 L 608.57 282.06 C 608.57 282.06 583.17 295.81 576.65 301.03 C 577.93 328.24 583.20 346.12 595.32 362.92 C 607.44 379.72 666.67 465.89 666.67 465.89 C 666.67 465.89 680.77 490.74 699.11 503.58 C 674.27 471.89 625.38 386.56 607.47 351.58 C 592.99 323.31 601.54 296.50 608.73 281.92 Z" fill="#e4e7fd" fill-rule="nonzero" group-id="2" node-id="650" stroke="none" target-height="221.664" target-width="122.466" target-x="576.647" target-y="281.92"/><path d="M 696.51 392.65 C 692.24 392.98 686.79 392.88 680.54 391.62 C 670.46 389.57 660.37 384.96 650.57 377.92 C 638.40 369.18 626.63 356.63 615.58 340.64 C 604.92 328.85 600.46 316.77 602.31 304.74 C 603.10 299.60 605.06 294.48 608.14 289.50 C 610.58 285.56 613.73 281.70 617.50 278.03 C 623.89 271.81 629.79 268.33 630.04 268.19 C 630.70 267.80 631.54 268.03 631.93 268.69 C 632.31 269.34 632.09 270.19 631.43 270.57 C 631.37 270.61 625.53 274.06 619.37 280.06 C 613.75 285.55 606.70 294.35 605.04 305.18 C 603.32 316.36 607.58 327.69 617.69 338.85 L 617.75 338.92 L 617.80 338.99 C 642.39 374.62 665.79 385.80 681.09 388.90 C 697.49 392.23 708.18 387.26 708.28 387.21 C 708.97 386.88 709.80 387.17 710.13 387.86 C 710.46 388.55 710.16 389.38 709.48 389.70 C 709.36 389.76 706.49 391.11 701.48 392.01 C 700.08 392.27 698.41 392.50 696.51 392.65 Z" fill="#a0c2ea" fill-rule="nonzero" group-id="2,19" node-id="654" stroke="none" target-height="125.179016" target-width="110" target-x="600.455" target-y="267.804"/><path d="M 674.53 477.90 C 683.45 490.26 698.89 508.11 715.35 510.75 C 719.06 511.78 724.55 512.27 731.06 512.41 C 726.04 507.86 715.77 502.77 713.09 501.37 C 708.03 498.71 698.06 488.12 695.73 483.04 C 693.82 478.90 676.69 471.53 674.53 477.90 Z" fill="#15346b" fill-rule="nonzero" group-id="2" node-id="657" stroke="none" target-height="40.88202" target-width="56.531006" target-x="674.532" target-y="471.529"/><path d="M 544.95 224.82 C 544.95 224.82 529.47 241.50 530.96 260.65 C 532.45 279.80 556.51 298.72 570.28 297.65 C 589.29 285.36 588.58 276.27 588.58 276.27 L 583.53 250.60 L 560.68 229.37 L 544.95 224.82 Z" fill="#38558f" fill-rule="nonzero" group-id="2" node-id="659" stroke="none" target-height="73.895004" target-width="59.82196" target-x="529.465" target-y="224.825"/><path d="M 555.82 293.65 C 560.98 296.46 566.10 297.97 570.28 297.65 C 589.29 285.36 588.58 276.27 588.58 276.27 L 583.53 250.60 L 560.68 229.37 L 552.49 227.01 C 549.35 226.60 546.18 226.59 543.05 227.09 C 542.32 228.01 541.43 229.20 540.47 230.61 C 591.10 260.95 566.61 285.58 555.82 293.65 Z" fill="#313a68" fill-rule="nonzero" group-id="2" node-id="661" stroke="none" target-height="71.388" target-width="50.626953" target-x="540.468" target-y="226.586"/><path d="M 575.26 306.41 C 575.26 306.41 622.77 281.09 624.45 268.76 C 626.12 256.44 622.17 203.80 578.08 207.23 C 578.08 207.23 554.74 210.01 541.54 229.20 C 553.93 231.70 583.02 240.39 585.05 270.03 C 586.73 291.66 567.50 295.65 567.50 295.65 C 567.50 295.65 567.02 310.93 575.26 306.41 Z" fill="#eef3ff" fill-rule="nonzero" group-id="2" node-id="663" stroke="none" target-height="107.12999" target-width="84.58502" target-x="541.537" target-y="203.8"/><path d="M 593.40 208.55 C 613.90 231.76 606.88 269.37 604.25 276.43 C 601.92 282.71 577.07 296.36 567.94 301.20 C 568.65 305.03 570.51 309.02 575.26 306.41 C 575.26 306.41 622.77 281.09 624.45 268.76 C 625.90 258.05 623.10 216.88 593.40 208.55 Z" fill="#bbcef0" fill-rule="nonzero" group-id="2" node-id="665" stroke="none" target-height="100.47" target-width="57.966003" target-x="567.937" target-y="208.548"/><path d="M 630.66 426.98 C 630.66 426.98 629.19 445.52 630.66 457.33 C 632.14 469.13 604.04 464.25 601.35 458.22 C 598.66 452.20 593.62 433.28 599.28 418.93 C 604.94 404.58 630.66 426.98 630.66 426.98 Z" fill="#f8faff" fill-rule="nonzero" group-id="2" node-id="667" stroke="none" target-height="64.550995" target-width="38.51599" target-x="593.62" target-y="404.584"/><path d="M 667.20 316.98 C 667.20 316.98 665.48 311.59 657.60 294.04 C 649.72 276.50 629.93 276.93 614.92 285.31 C 599.91 293.68 601.92 315.55 604.35 323.96 C 606.82 332.50 619.33 341.93 619.33 341.93 C 623.18 353.96 625.46 361.96 623.00 367.70 C 621.94 370.15 617.60 378.39 612.83 387.89 C 622.16 401.33 633.40 417.59 643.18 431.78 L 670.30 390.64 C 680.31 378.50 675.73 365.25 675.73 365.25 L 667.20 316.98 Z" fill="#284e84" fill-opacity="0.5" fill-rule="nonzero" group-id="2,20" node-id="671" stroke="none" target-height="155.27902" target-width="80.39502" target-x="599.914" target-y="276.499"/><path d="M 619.33 341.93 C 619.33 341.93 606.82 332.51 604.35 323.97 C 601.92 315.55 599.91 293.68 614.92 285.31 C 629.93 276.93 649.72 276.50 657.60 294.04 C 665.48 311.59 665.17 316.60 665.17 316.60 L 673.17 365.88 C 673.17 365.88 674.09 377.72 664.08 389.87 L 633.40 430.23 C 633.40 430.23 611.93 417.90 598.24 421.88 C 600.03 410.93 620.53 373.43 623.00 367.70 C 625.46 361.96 623.18 353.96 619.33 341.93 Z" fill="#ccddff" fill-rule="nonzero" group-id="2" node-id="674" stroke="none" target-height="153.728" target-width="75.843994" target-x="598.244" target-y="276.501"/><path d="M 665.47 318.43 L 665.17 316.60 C 665.17 316.60 665.20 316.14 665.03 315.03 C 659.18 315.36 634.37 318.02 616.64 339.73 C 618.24 341.11 619.33 341.93 619.33 341.93 C 619.36 342.03 619.39 342.13 619.43 342.24 C 625.89 336.40 648.88 316.84 665.47 318.43 Z" fill="#0456a1" fill-rule="nonzero" group-id="2" node-id="676" stroke="none" target-height="27.203003" target-width="48.830994" target-x="616.641" target-y="315.034"/><path d="M 666.60 358.07 C 665.70 364.38 668.27 372.49 661.40 380.37 C 660.06 381.77 662.19 386.22 665.94 387.44 C 673.97 376.19 673.17 365.87 673.17 365.87 L 671.18 353.65 C 669.37 353.66 667.12 354.44 666.60 358.07 Z" fill="#1e469e" fill-rule="nonzero" group-id="2" node-id="678" stroke="none" target-height="33.789" target-width="13.906006" target-x="660.061" target-y="353.65"/><path d="M 635.85 427.01 C 622.37 413.28 604.22 414.76 600.21 415.29 C 599.21 417.96 598.51 420.22 598.24 421.88 C 611.93 417.90 633.40 430.23 633.40 430.23 L 635.85 427.01 Z" fill="#1e469e" fill-rule="nonzero" group-id="2" node-id="680" stroke="none" target-height="16.949005" target-width="37.60498" target-x="598.244" target-y="413.28"/></g></svg>