<svg height="100" node-id="1" sillyvg="true" template-height="1000" template-width="100" version="1.1" viewBox="0 0 1000 1000" width="100" xmlns="http://www.w3.org/2000/svg" xmlns:xlink="http://www.w3.org/1999/xlink"><defs node-id="69"></defs><g node-id="236"><path d="M 711.10 191.30 C 623.20 206.00 521.20 228.50 421.10 246.30 C 384.20 252.90 350.80 254.60 320.70 253.00 C 324.60 241.10 329.00 229.50 334.60 218.30 C 344.20 198.90 359.40 186.60 376.00 175.40 C 390.40 174.20 405.50 172.30 421.10 169.50 C 487.10 157.70 553.80 144.00 616.80 131.80 C 623.70 136.40 631.20 140.20 639.50 142.60 C 666.70 150.70 690.40 167.90 711.10 191.30 Z" fill="#f5b619" fill-rule="nonzero" group-id="1" node-id="73" stroke="none" target-height="122.8" target-width="390.39996" target-x="320.7" target-y="131.8"/></g><g node-id="237"><path d="M 759.40 267.10 C 661.90 280.60 540.20 308.30 421.10 329.60 C 373.60 338.10 331.80 338.60 295.40 334.00 L 309.40 291.70 C 312.90 278.80 316.50 265.80 320.60 253.10 C 350.70 254.80 384.10 253.00 421.00 246.40 C 521.10 228.50 623.10 206.10 711.00 191.40 C 729.50 212.20 745.50 238.10 759.40 267.10 Z" fill="#f4ed4f" fill-rule="nonzero" group-id="2" node-id="78" stroke="none" target-height="147.20001" target-width="464.00003" target-x="295.4" target-y="191.4"/></g><g node-id="238"><path d="M 793.50 339.60 C 691.20 350.60 554.50 382.50 421.10 406.30 C 360.60 417.10 309.50 414.90 266.90 405.90 C 272.70 398.00 277.30 388.00 279.60 381.30 L 295.40 334.00 C 331.80 338.60 373.60 338.10 421.10 329.60 C 540.20 308.30 661.90 280.60 759.40 267.10 C 767.70 284.40 775.30 302.80 782.10 321.80 C 784.60 328.70 788.50 334.70 793.50 339.60 Z" fill="#a7cf5b" fill-rule="nonzero" group-id="3" node-id="83" stroke="none" target-height="150" target-width="526.6" target-x="266.9" target-y="267.1"/></g><g node-id="239"><path d="M 836.60 379.00 C 843.90 391.20 845.30 405.10 844.10 419.00 C 739.40 422.20 578.00 461.40 421.10 489.40 C 303.40 510.40 221.00 482.40 168.70 450.30 L 168.70 450.30 C 180.40 422.30 213.00 405.10 245.10 417.20 C 245.30 417.30 245.40 417.30 245.60 417.40 C 246.00 417.60 246.40 417.70 246.80 417.80 C 253.70 420.10 260.90 414.10 266.90 405.90 C 309.40 414.90 360.60 417.10 421.10 406.30 C 554.50 382.50 691.20 350.60 793.50 339.60 C 799.00 345.00 805.70 348.90 812.90 351.10 C 812.90 351.10 812.80 351.10 812.80 351.10 C 811.00 351.60 809.30 352.20 807.50 352.80 C 819.30 357.70 829.50 366.90 836.60 379.00 Z" fill="#8ad0e3" fill-rule="nonzero" group-id="4" node-id="88" stroke="none" target-height="170.79999" target-width="676.6" target-x="168.7" target-y="339.6"/></g><g node-id="240"><path d="M 911.50 424.20 C 903.20 422.10 894.00 420.70 883.90 419.90 C 885.30 405.70 884.00 391.40 876.50 378.90 C 868.20 364.90 855.80 354.70 841.50 350.70 C 867.40 343.50 891.20 356.20 904.60 378.70 C 913.00 392.50 913.70 408.50 911.50 424.20 Z" fill="#8ad0e3" fill-rule="nonzero" group-id="5" node-id="93" stroke="none" target-height="80.70001" target-width="72.20001" target-x="841.5" target-y="343.5"/></g><g node-id="241"><path d="M 421.10 489.40 C 578.00 461.40 739.40 422.20 844.10 419.00 C 843.10 429.70 840.50 440.40 837.80 450.30 C 833.40 465.80 826.30 482.00 818.30 497.20 C 811.80 497.70 805.10 498.30 798.20 499.00 C 796.50 499.20 794.80 499.40 793.00 499.50 C 771.30 501.80 748.00 505.10 723.50 509.10 C 722.40 509.30 721.30 509.50 720.20 509.60 C 718.50 509.90 716.70 510.20 714.90 510.50 C 702.10 512.60 689.10 514.90 675.70 517.30 C 673.40 517.70 671.00 518.10 668.70 518.60 C 666.40 519.00 664.00 519.50 661.60 519.90 C 659.00 520.40 656.30 520.90 653.70 521.40 C 649.50 522.20 645.30 523.00 641.00 523.80 C 640.70 523.90 640.40 523.90 640.10 524.00 C 636.10 524.80 632.20 525.50 628.20 526.30 C 626.10 526.70 623.90 527.10 621.80 527.50 C 618.20 528.20 614.60 528.90 611.00 529.60 C 610.30 529.70 609.60 529.90 608.90 530.00 C 604.70 530.80 600.50 531.60 596.30 532.50 C 596.20 532.50 596.00 532.60 595.90 532.60 C 591.50 533.40 587.20 534.30 582.80 535.20 C 582.30 535.30 581.90 535.40 581.40 535.50 C 577.40 536.30 573.50 537.10 569.50 537.80 C 568.50 538.00 567.40 538.20 566.40 538.40 C 563.90 538.90 561.40 539.40 558.90 539.90 C 558.00 540.10 557.10 540.20 556.20 540.40 C 547.30 542.20 538.40 543.90 529.40 545.70 C 526.50 546.30 523.70 546.80 520.90 547.40 C 515.80 548.40 510.70 549.40 505.60 550.40 C 502.30 551.00 499.00 551.70 495.70 552.30 C 491.20 553.20 486.70 554.10 482.20 554.90 C 470.90 557.10 459.60 559.20 448.30 561.30 C 441.80 562.50 435.30 563.70 428.90 564.90 C 426.30 565.40 423.80 565.80 421.20 566.30 C 317.00 584.80 240.40 565.00 188.00 537.90 L 188.00 537.90 C 176.40 517.90 169.60 503.30 165.70 486.60 C 162.70 473.60 164.10 461.10 168.70 450.30 C 221.00 482.40 303.40 510.40 421.10 489.40 Z" fill="#77c6b0" fill-rule="nonzero" group-id="6" node-id="98" stroke="none" target-height="165.79999" target-width="681.39996" target-x="162.7" target-y="419"/></g><g node-id="242"><path d="M 859.00 495.60 C 856.10 495.60 853.20 495.60 850.30 495.70 C 853.20 495.60 856.20 495.50 859.00 495.60 Z" fill="#77c6b0" fill-rule="nonzero" group-id="7" node-id="103" stroke="none" target-height="0.2000122" target-width="8.700012" target-x="850.3" target-y="495.5"/></g><g node-id="243"><path d="M 911.50 424.20 C 910.30 433.00 908.10 441.80 905.80 450.00 C 901.40 465.50 894.30 481.60 886.30 496.80 C 885.20 496.70 884.00 496.60 882.90 496.50 C 881.80 496.40 880.60 496.30 879.40 496.20 C 878.10 496.10 876.80 496.00 875.50 496.00 C 874.50 495.90 873.50 495.90 872.40 495.80 C 871.10 495.70 869.70 495.70 868.40 495.70 C 867.30 495.70 866.10 495.60 864.90 495.60 C 864.00 495.60 863.10 495.60 862.20 495.60 C 861.10 495.60 859.90 495.60 858.80 495.60 C 866.50 480.80 873.30 465.30 877.50 450.20 C 880.20 440.60 882.70 430.20 883.80 419.90 C 894.00 420.70 903.30 422.20 911.50 424.20 Z" fill="#77c6b0" fill-rule="nonzero" group-id="8" node-id="108" stroke="none" target-height="76.899994" target-width="52.700012" target-x="858.8" target-y="419.9"/></g><g node-id="244"><path d="M 773.70 566.20 C 771.20 569.40 770.20 573.40 770.70 577.40 C 771.00 580.00 771.30 582.60 771.70 585.20 C 672.20 598.00 545.20 627.10 421.10 649.30 C 338.30 664.10 273.00 654.60 223.30 636.50 C 224.90 630.30 226.50 624.90 227.70 620.70 C 229.90 613.40 228.90 605.40 224.90 598.90 C 209.10 572.80 197.10 553.70 188.00 537.90 C 240.40 565.00 317.00 584.80 421.10 566.20 C 423.70 565.70 426.20 565.30 428.80 564.80 C 435.30 563.60 441.80 562.50 448.20 561.20 C 459.50 559.10 470.80 557.00 482.10 554.80 C 486.60 553.90 491.10 553.10 495.60 552.20 C 498.90 551.60 502.20 550.90 505.50 550.30 C 510.60 549.30 515.70 548.30 520.80 547.30 C 523.70 546.70 526.50 546.20 529.30 545.60 C 536.00 544.30 542.70 543.00 549.40 541.60 C 551.60 541.20 553.90 540.70 556.10 540.30 C 557.00 540.10 557.90 540.00 558.80 539.80 C 561.30 539.30 563.80 538.80 566.30 538.30 C 567.30 538.10 568.40 537.90 569.40 537.70 C 573.40 536.90 577.30 536.10 581.30 535.40 C 581.80 535.30 582.20 535.20 582.70 535.10 C 587.10 534.20 591.50 533.40 595.80 532.50 C 595.90 532.50 596.10 532.50 596.20 532.40 C 600.40 531.60 604.70 530.80 608.80 529.90 C 609.50 529.80 610.20 529.60 610.90 529.50 C 614.50 528.80 618.10 528.10 621.70 527.40 C 623.90 527.00 626.00 526.60 628.10 526.20 C 632.10 525.40 636.10 524.70 640.00 523.90 C 640.30 523.80 640.60 523.80 640.90 523.70 C 645.10 522.90 649.40 522.10 653.60 521.30 C 656.30 520.80 658.90 520.30 661.50 519.80 C 663.90 519.40 666.20 518.90 668.60 518.50 C 671.00 518.10 673.30 517.60 675.60 517.20 C 688.90 514.80 702.00 512.50 714.80 510.40 C 716.60 510.10 718.30 509.80 720.10 509.50 C 721.20 509.30 722.30 509.10 723.40 509.00 C 747.90 505.10 771.20 501.80 792.90 499.40 C 794.60 499.20 796.40 499.00 798.10 498.90 C 805.00 498.20 811.60 497.60 818.20 497.10 C 801.90 528.20 782.00 555.50 773.70 566.20 Z" fill="#b37cb4" fill-rule="nonzero" group-id="9" node-id="113" stroke="none" target-height="166.99997" target-width="630.2" target-x="188" target-y="497.1"/></g><g node-id="245"><path d="M 850.30 495.60 C 853.30 495.50 856.20 495.50 859.00 495.50 C 856.10 495.50 853.20 495.60 850.30 495.60 Z" fill="#b37cb4" fill-rule="nonzero" group-id="10" node-id="118" stroke="none" target-height="0.1000061" target-width="8.700012" target-x="850.3" target-y="495.5"/></g><g node-id="246"><path d="M 841.80 565.90 C 839.40 569.10 838.30 573.10 838.80 577.10 C 838.90 577.80 839.00 578.40 839.10 579.10 C 830.20 579.50 820.90 580.10 811.20 580.90 C 811.00 579.70 810.90 578.60 810.80 577.40 C 810.30 573.40 811.40 569.40 813.80 566.20 C 822.10 555.20 842.60 527.20 859.10 495.60 C 860.30 495.60 861.40 495.60 862.50 495.60 C 863.40 495.60 864.30 495.60 865.20 495.60 C 866.40 495.60 867.50 495.60 868.70 495.70 C 870.00 495.70 871.40 495.80 872.70 495.80 C 873.70 495.80 874.70 495.90 875.80 496.00 C 877.10 496.10 878.40 496.10 879.70 496.20 C 880.90 496.30 882.00 496.40 883.20 496.50 C 884.30 496.60 885.50 496.70 886.60 496.80 C 870.10 527.90 850.10 555.20 841.80 565.90 Z" fill="#b37cb4" fill-rule="nonzero" group-id="11" node-id="123" stroke="none" target-height="85.30002" target-width="76.29999" target-x="810.3" target-y="495.6"/></g><g node-id="247"><path d="M 851.20 704.40 C 850.70 688.10 849.50 671.80 848.00 655.60 C 845.60 630.10 842.30 604.60 839.10 579.10 C 734.30 583.40 575.50 621.80 421.10 649.30 C 338.30 664.10 273.00 654.60 223.30 636.50 C 218.60 654.30 212.80 679.60 209.30 707.80 C 206.00 733.90 204.60 762.50 207.60 790.20 C 208.90 802.00 211.00 813.70 214.00 824.90 C 220.20 847.50 232.60 866.70 249.00 881.30 C 276.40 905.80 314.90 917.10 353.30 909.00 C 384.40 902.50 435.60 895.80 514.80 895.80 C 654.80 895.80 660.30 924.90 758.20 896.20 C 791.80 886.40 819.00 850.30 834.00 818.60 C 834.40 817.70 834.80 816.80 835.20 815.90 C 846.10 791.60 850.20 765.20 851.20 738.60 C 851.70 727.20 851.60 715.80 851.20 704.40 Z" fill="#ffffff" fill-rule="nonzero" group-id="12" node-id="128" stroke="none" target-height="345.80005" target-width="647.1" target-x="204.6" target-y="579.1"/></g><g node-id="248"><path d="M 616.80 131.90 C 553.80 144.10 487.00 157.90 421.10 169.60 C 405.40 172.40 390.40 174.30 376.00 175.50 C 385.80 168.90 396.10 162.70 406.20 155.70 C 434.50 135.90 461.80 114.60 487.90 91.90 C 498.60 82.60 508.10 76.80 516.70 73.70 C 558.20 58.80 579.30 107.10 616.80 131.90 Z" fill="#eb5c29" fill-rule="nonzero" group-id="13" node-id="133" stroke="none" target-height="116.7" target-width="240.79999" target-x="376" target-y="58.8"/></g><g node-id="249"><path d="M 884.00 419.90 C 871.90 418.90 858.50 418.60 844.10 419.10 C 845.40 405.20 843.90 391.30 836.60 379.10 C 829.50 367.00 819.30 357.80 807.50 352.90 C 809.30 352.30 811.00 351.70 812.80 351.20 C 812.80 351.20 812.90 351.20 812.90 351.20 C 821.50 353.80 831.00 354.00 840.30 351.20 C 840.50 351.10 840.70 351.10 840.90 351.00 C 841.10 350.90 841.40 350.90 841.60 350.80 C 856.00 354.80 868.30 365.00 876.60 379.00 C 884.10 391.40 885.40 405.70 884.00 419.90 Z" fill="#74aebe" fill-rule="nonzero" group-id="14" node-id="138" stroke="none" target-height="69.100006" target-width="77.900024" target-x="807.5" target-y="350.8"/></g><g node-id="250"><path d="M 812.90 351.10 C 822.90 348.20 832.60 348.20 841.60 350.70 C 841.40 350.80 841.10 350.80 840.90 350.90 C 840.70 351.00 840.50 351.00 840.30 351.10 C 831.00 353.90 821.50 353.70 812.90 351.10 Z" fill="#d3d1d2" fill-rule="nonzero" group-id="15" node-id="143" stroke="none" target-height="5.6999817" target-width="28.699951" target-x="812.9" target-y="348.2"/></g><g node-id="251"><path d="M 884.00 419.90 C 883.00 430.30 880.40 440.60 877.70 450.20 C 873.40 465.20 866.70 480.80 859.00 495.60 C 856.20 495.60 853.20 495.60 850.30 495.70 C 848.90 495.70 847.50 495.70 846.10 495.80 C 845.10 495.80 844.20 495.80 843.20 495.90 C 842.40 495.90 841.60 495.90 840.80 496.00 C 838.80 496.10 836.70 496.20 834.60 496.30 C 834.20 496.30 833.80 496.30 833.50 496.40 C 832.70 496.40 831.90 496.50 831.00 496.50 C 829.30 496.60 827.70 496.70 826.00 496.80 C 824.40 496.90 822.90 497.00 821.30 497.10 C 820.30 497.20 819.30 497.20 818.30 497.30 C 826.30 482.10 833.40 466.00 837.80 450.40 C 840.60 440.50 843.20 429.80 844.10 419.10 C 858.50 418.60 871.90 418.80 884.00 419.90 Z" fill="#64a694" fill-rule="nonzero" group-id="16" node-id="148" stroke="none" target-height="78.69998" target-width="65.70001" target-x="818.3" target-y="418.6"/></g><g node-id="252"><path d="M 813.70 566.20 C 811.30 569.40 810.20 573.40 810.70 577.40 C 810.80 578.60 811.00 579.70 811.10 580.90 C 798.50 582.00 785.30 583.40 771.60 585.20 C 771.30 582.60 770.90 580.00 770.60 577.40 C 770.10 573.40 771.10 569.40 773.60 566.20 C 781.90 555.50 801.80 528.20 818.10 497.20 C 819.10 497.10 820.10 497.10 821.10 497.00 C 822.70 496.90 824.20 496.80 825.80 496.70 C 827.50 496.60 829.20 496.50 830.80 496.40 C 831.60 496.30 832.50 496.30 833.30 496.30 C 833.70 496.30 834.10 496.20 834.40 496.20 C 836.50 496.10 838.60 496.00 840.60 495.90 C 841.40 495.90 842.20 495.80 843.00 495.80 C 844.00 495.80 845.00 495.70 845.90 495.70 C 847.30 495.70 848.70 495.60 850.10 495.60 C 853.00 495.60 856.00 495.50 858.80 495.50 C 842.50 527.30 822.00 555.20 813.70 566.20 Z" fill="#946796" fill-rule="nonzero" group-id="17" node-id="153" stroke="none" target-height="89.70001" target-width="88.70001" target-x="770.1" target-y="495.5"/></g><g node-id="253"><path d="M 823.10 704.70 C 824.40 743.20 822.90 783.20 806.10 818.60 C 791.10 850.30 763.90 886.30 730.30 896.20 C 687.00 909.00 661.70 910.30 634.90 907.90 C 650.30 906.30 667.90 902.80 690.30 896.20 C 723.90 886.40 751.10 850.30 766.10 818.60 C 782.90 783.20 784.40 743.20 783.10 704.70 C 781.80 664.60 776.70 624.90 771.70 585.20 C 785.40 583.40 798.60 582.00 811.20 580.90 C 816.30 622.00 821.70 663.30 823.10 704.70 Z" fill="#d3d1d2" fill-rule="nonzero" group-id="18" node-id="158" stroke="none" target-height="329.39996" target-width="189.5" target-x="634.9" target-y="580.9"/></g><g node-id="254"><path d="M 859.00 495.60 C 856.10 495.60 853.20 495.60 850.30 495.70 C 853.20 495.60 856.20 495.50 859.00 495.60 Z" fill="#d3d1d2" fill-rule="nonzero" group-id="19" node-id="163" stroke="none" target-height="0.2000122" target-width="8.700012" target-x="850.3" target-y="495.5"/></g><g node-id="255"><path d="M 401.80 477.80 C 401.80 487.02 394.32 494.50 385.10 494.50 C 375.88 494.50 368.40 487.02 368.40 477.80 C 368.40 468.58 375.88 461.10 385.10 461.10 C 394.32 461.10 401.80 468.58 401.80 477.80 Z" fill="#ef8ca4" fill-rule="nonzero" group-id="20" node-id="168" stroke="none" target-height="33.399994" target-width="33.399994" target-x="368.4" target-y="461.1"/></g><g node-id="256"><path d="M 673.00 477.80 C 673.00 487.02 665.52 494.50 656.30 494.50 C 647.08 494.50 639.60 487.02 639.60 477.80 C 639.60 468.58 647.08 461.10 656.30 461.10 C 665.52 461.10 673.00 468.58 673.00 477.80 Z" fill="#ef8ca4" fill-rule="nonzero" group-id="21" node-id="173" stroke="none" target-height="33.399994" target-width="33.400024" target-x="639.6" target-y="461.1"/></g><g node-id="257"><path d="M 300.60 919.10 C 244.80 919.10 194.00 882.20 178.80 826.90 C 157.90 750.60 181.40 655.80 192.50 618.60 C 194.10 613.20 193.40 607.50 190.50 602.70 C 159.10 550.80 138.90 505.60 130.40 468.60 C 124.70 444.10 132.70 419.50 151.70 402.90 C 170.70 386.30 196.10 381.70 219.70 390.60 L 220.10 390.70 C 220.20 390.80 220.40 390.80 220.50 390.90 L 221.10 391.10 C 230.60 394.30 241.10 388.80 244.40 378.90 C 245.70 375.00 250.00 372.90 253.90 374.20 C 257.80 375.50 259.90 379.80 258.60 383.70 C 252.70 401.30 233.90 410.90 216.60 405.40 C 216.10 405.30 215.40 405.10 214.50 404.70 C 214.40 404.70 214.20 404.60 214.10 404.50 C 195.80 397.70 176.20 401.30 161.50 414.20 C 146.80 427.10 140.60 446.20 145.00 465.20 C 153.20 500.70 172.80 544.30 203.30 594.90 C 208.40 603.20 209.70 613.40 206.90 622.80 C 196.20 658.80 173.30 750.30 193.20 822.90 C 208.60 879.20 266.00 913.80 323.70 901.60 C 352.90 895.50 404.80 888.20 486.70 888.20 C 543.60 888.20 578.30 892.90 606.20 896.70 C 646.60 902.20 671.00 905.50 728.00 888.90 C 759.10 879.80 785.10 844.90 799.10 815.30 C 800.90 811.60 805.30 810.00 809.10 811.70 C 812.80 813.50 814.40 817.90 812.70 821.70 C 805.20 837.50 777.30 890.10 732.20 903.30 C 672.20 920.90 645.10 917.20 604.20 911.60 C 576.70 907.90 542.60 903.20 486.70 903.20 C 406.10 903.20 355.20 910.30 326.70 916.20 C 318.00 918.20 309.20 919.10 300.60 919.10 Z" fill="#565656" fill-rule="nonzero" group-id="22" node-id="178" stroke="none" target-height="548" target-width="689.7" target-x="124.7" target-y="372.9"/></g><g node-id="258"><path d="M 823.20 711.90 C 819.20 711.90 815.80 708.70 815.70 704.60 C 814.40 665.80 809.50 626.60 804.70 588.70 L 803.40 578.00 C 802.60 571.90 804.20 566.00 807.90 561.20 C 819.20 546.50 857.40 494.60 870.60 447.90 C 877.00 425.00 881.40 401.20 870.30 382.50 C 857.60 361.20 836.50 351.80 815.00 358.10 C 804.90 361.10 794.60 365.60 784.60 371.50 C 780.00 374.20 774.60 374.60 769.60 372.70 C 764.60 370.80 760.80 366.70 759.20 361.60 C 742.10 305.60 721.90 259.60 699.00 225.00 C 672.60 185.00 642.40 159.70 609.20 150.00 C 584.60 142.80 566.70 124.70 550.90 108.80 C 528.40 86.20 513.50 72.80 491.00 80.80 C 483.00 83.70 474.10 89.30 464.60 97.60 C 438.50 120.30 410.80 141.90 382.30 161.90 C 376.30 166.10 370.20 170.00 364.20 173.80 C 343.60 187.00 324.10 199.50 313.10 221.80 C 311.30 225.50 306.80 227.00 303.00 225.20 C 299.30 223.40 297.80 218.90 299.60 215.10 C 312.50 189.10 334.60 174.90 356.10 161.20 C 361.90 157.50 367.90 153.60 373.60 149.60 C 401.70 129.90 429.00 108.60 454.70 86.30 C 465.80 76.70 476.00 70.30 485.90 66.70 C 518.60 55.00 540.40 76.90 561.50 98.20 C 576.80 113.50 592.50 129.40 613.40 135.60 C 680.80 155.40 734.70 230.00 773.50 357.20 C 773.80 358.20 774.50 358.60 775.00 358.80 C 775.50 359.00 776.20 359.10 777.00 358.60 C 788.00 352.10 799.40 347.20 810.70 343.80 C 838.60 335.70 867.00 347.90 883.10 375.00 C 897.20 398.60 892.00 427.30 885.00 452.20 C 871.00 501.50 831.50 555.30 819.70 570.60 C 818.50 572.20 817.90 574.20 818.20 576.30 L 819.50 587.00 C 824.30 625.30 829.30 664.80 830.60 704.30 C 830.70 708.40 827.50 711.90 823.30 712.00 C 823.40 711.90 823.30 711.90 823.20 711.90 Z" fill="#565656" fill-rule="nonzero" group-id="23" node-id="183" stroke="none" target-height="657" target-width="599.4" target-x="297.8" target-y="55"/></g><g node-id="259"><path d="M 262.70 834.50 C 260.90 834.50 259.00 833.80 257.60 832.40 C 253.10 828.10 247.10 817.40 240.10 771.50 C 236.30 747.00 234.10 723.60 234.00 723.40 C 233.60 719.30 236.60 715.60 240.70 715.20 C 244.80 714.80 248.50 717.80 248.90 721.90 C 248.90 722.10 251.10 745.10 254.80 769.10 C 261.70 814.40 267.30 820.90 267.90 821.50 C 270.80 824.40 271.00 829.10 268.10 832.10 C 266.60 833.70 264.60 834.50 262.70 834.50 Z" fill="#d3d1d2" fill-rule="nonzero" group-id="24" node-id="188" stroke="none" target-height="119.70001" target-width="37.399994" target-x="233.6" target-y="714.8"/></g><g node-id="260"><g node-id="266"><path d="M 248.44 701.02 L 248.58 703.13 L 248.18 705.09 L 247.30 706.88 L 246.00 708.40 L 244.35 709.53 L 242.36 710.23 L 240.25 710.37 L 238.29 709.97 L 236.50 709.09 L 234.98 707.79 L 233.85 706.14 L 233.15 704.15 L 233.01 702.04 L 233.41 700.08 L 234.29 698.29 L 235.59 696.78 L 237.24 695.64 L 239.23 694.94 L 241.34 694.80 L 243.30 695.20 L 245.09 696.08 L 246.60 697.38 L 247.74 699.03 L 248.44 701.02 Z" fill="#d3d1d2" fill-rule="nonzero" group-id="25,31" node-id="195" stroke="none" target-height="15.566101" target-width="15.565979" target-x="233.01096" target-y="694.80304"/></g></g><g node-id="261"><g node-id="267"><path d="M 654.46 202.78 L 655.27 204.73 L 655.53 206.72 L 655.27 208.70 L 654.53 210.55 L 653.33 212.15 L 651.67 213.45 L 649.72 214.26 L 647.73 214.52 L 645.75 214.26 L 643.90 213.52 L 642.29 212.31 L 640.99 210.65 L 640.18 208.71 L 639.93 206.72 L 640.18 204.74 L 640.93 202.89 L 642.13 201.28 L 643.79 199.98 L 645.74 199.17 L 647.73 198.92 L 649.71 199.17 L 651.56 199.92 L 653.17 201.12 L 654.46 202.78 Z" fill="#ffffff" fill-rule="nonzero" group-id="26,32" node-id="203" stroke="none" target-height="15.603165" target-width="15.60321" target-x="639.92755" target-y="198.91621"/></g></g><g node-id="262"><path d="M 552.50 155.10 C 552.50 155.10 600.60 155.50 631.20 189.40" fill="#ffffff" fill-rule="nonzero" group-id="27" node-id="209" stroke="none" target-height="34.299988" target-width="78.70001" target-x="552.5" target-y="155.1"/><path d="M 631.20 196.90 C 629.20 196.90 627.10 196.10 625.60 194.40 C 597.70 163.50 552.80 162.60 552.40 162.60 C 548.30 162.60 544.90 159.20 545.00 155.00 C 545.00 150.90 548.40 147.60 552.50 147.60 C 552.50 147.60 552.50 147.60 552.60 147.60 C 554.70 147.60 604.40 148.40 636.80 184.40 C 639.60 187.50 639.30 192.20 636.30 195.00 C 634.80 196.30 633.00 196.90 631.20 196.90 Z" fill="#ffffff" fill-rule="nonzero" group-id="27" node-id="211" stroke="none" target-height="49.299988" target-width="94.69995" target-x="544.9" target-y="147.6"/></g><g node-id="263"><path d="M 263.40 361.50 C 261.60 361.50 259.80 360.80 258.30 359.50 C 255.30 356.70 255.10 352.10 257.80 349.00 C 262.50 342.50 277.90 288.60 290.10 240.10 C 291.10 236.10 295.20 233.60 299.20 234.70 C 303.20 235.70 305.70 239.80 304.60 243.80 C 304.50 244.10 298.00 270.00 290.60 296.70 C 275.10 352.30 270.90 356.80 268.90 359.00 C 267.50 360.70 265.40 361.50 263.40 361.50 Z M 257.90 348.90 C 257.90 348.90 257.90 349.00 257.90 348.90 C 257.90 349.00 257.90 348.90 257.90 348.90 Z" fill="#565656" fill-rule="nonzero" group-id="28" node-id="216" stroke="none" target-height="127.899994" target-width="50.600006" target-x="255.1" target-y="233.6"/></g><g node-id="264"><path d="M 813.80 806.20 C 812.90 806.20 811.90 806.00 811.00 805.70 C 807.20 804.20 805.30 799.80 806.80 795.90 C 815.60 773.90 815.90 723.80 815.90 723.30 C 815.90 719.20 819.30 715.80 823.40 715.80 C 823.40 715.80 823.40 715.80 823.40 715.80 C 827.50 715.80 830.90 719.20 830.90 723.30 C 830.90 725.50 830.70 776.80 820.80 801.50 C 819.60 804.40 816.80 806.20 813.80 806.20 Z" fill="#565656" fill-rule="nonzero" group-id="29" node-id="221" stroke="none" target-height="90.400024" target-width="25.600037" target-x="805.3" target-y="715.8"/></g><g node-id="265"><g node-id="268"><path d="M 517.30 464.90 C 513.70 464.90 510.00 464.60 506.20 464.00 L 506.00 464.00 C 501.50 463.20 495.40 462.20 490.80 457.60 C 487.90 454.70 487.90 449.90 490.80 447.00 C 493.70 444.10 498.50 444.10 501.40 447.00 C 502.60 448.20 505.90 448.70 508.50 449.20 L 508.70 449.20 C 512.80 449.90 516.80 450.10 520.60 449.80 C 526.40 449.40 531.80 447.80 536.30 445.10 C 539.90 443.00 544.50 444.20 546.60 447.80 C 548.70 451.40 547.50 456.00 543.90 458.10 C 537.50 461.90 529.80 464.20 521.80 464.80 C 520.30 464.90 518.80 464.90 517.30 464.90 Z" fill="#565656" fill-rule="nonzero" group-id="30,33" node-id="228" stroke="none" target-height="21.899994" target-width="60.80002" target-x="487.9" target-y="443"/></g></g><path d="M 471.10 397.80 C 471.10 408.29 462.59 416.80 452.10 416.80 C 441.61 416.80 433.10 408.29 433.10 397.80 C 433.10 387.31 441.61 378.80 452.10 378.80 C 462.59 378.80 471.10 387.31 471.10 397.80 Z" fill="#565656" fill-rule="nonzero" node-id="232" stroke="none" target-height="38" target-width="38" target-x="433.1" target-y="378.8"/><path d="M 598.80 397.80 C 598.80 408.29 590.29 416.80 579.80 416.80 C 569.31 416.80 560.80 408.29 560.80 397.80 C 560.80 387.31 569.31 378.80 579.80 378.80 C 590.29 378.80 598.80 387.31 598.80 397.80 Z" fill="#565656" fill-rule="nonzero" node-id="234" stroke="none" target-height="3" target-width="38" target-x="560.8" target-y="38.8"/></svg>